<svg width="20" height="22" viewBox="0 0 20 22" fill="none" xmlns="http://www.w3.org/2000/svg">
<g clip-path="url(#clip0)">
<path d="M7.48231 4.11877C7.48231 3.84857 7.27476 3.6253 7.00918 3.60984C6.73934 3.60984 6.5205 3.84466 6.5205 4.11877C6.5205 4.39287 6.73934 4.62769 7.00918 4.62769C7.27476 4.61223 7.48231 4.38897 7.48231 4.11877ZM12.9228 4.11877C12.9228 3.84466 12.704 3.60984 12.4341 3.60984C12.1685 3.6253 11.961 3.84857 11.961 4.11877C11.961 4.38897 12.1685 4.61223 12.4341 4.62769C12.704 4.62769 12.9228 4.39287 12.9228 4.11877ZM3.307 8.36234V13.9773C3.307 14.7219 2.72864 15.3219 1.99561 15.3219C1.26258 15.3219 0.671875 14.721 0.671875 13.9773V8.36234C0.671875 7.63112 1.2634 7.03027 1.99561 7.03027C2.71875 7.03302 3.3043 7.6278 3.307 8.36234ZM15.6221 15.9745C15.6221 16.7709 14.9919 17.4111 14.221 17.4111H13.2568V20.3752C13.2568 21.1198 12.6653 21.7198 11.9331 21.7198C11.2009 21.7198 10.6094 21.119 10.6094 20.3752V17.4111H8.83559V20.3752C8.83559 21.1198 8.24407 21.7198 7.51186 21.7198C6.78466 21.7152 6.19818 21.1139 6.20046 20.3752L6.1873 17.4111H5.23625C4.86084 17.4122 4.50049 17.2612 4.23503 16.9915C3.96957 16.7219 3.82092 16.3559 3.82201 15.9745V7.27847H15.6229L15.6221 15.9745ZM12.6398 1.99029C14.4399 2.93043 15.6608 4.73215 15.6608 6.80882H3.77019C3.77019 4.73299 4.99109 2.93043 6.80351 1.99029L5.89113 0.279661C5.86547 0.236336 5.85781 0.184429 5.86985 0.13537C5.88189 0.08631 5.91262 0.0441213 5.9553 0.0180935C6.04497 -0.0211833 6.16097 0.0047227 6.21281 0.0966473L7.13835 1.82065C7.92239 1.468 8.79693 1.27245 9.72247 1.27245C10.648 1.27245 11.5226 1.468 12.3066 1.82065L13.2321 0.0966473C13.284 0.00555838 13.3991 -0.0211833 13.4896 0.0180935C13.5323 0.0441213 13.5631 0.08631 13.5751 0.13537C13.5871 0.184429 13.5795 0.236336 13.5538 0.279661L12.6398 1.99029ZM18.7714 8.36234V13.9773C18.7714 14.7219 18.1799 15.3219 17.4477 15.3219C16.7205 15.3173 16.134 14.7159 16.1363 13.9773V8.36234C16.1354 8.00878 16.2733 7.66945 16.5194 7.41944C16.7655 7.16944 17.0996 7.02938 17.4477 7.03027C18.1807 7.03027 18.7714 7.61775 18.7714 8.36234Z" fill="white"/>
</g>
<defs>
<clipPath id="clip0">
<rect width="19.0045" height="21.7195" fill="white"/>
</clipPath>
</defs>
</svg>
