<svg width="19" height="22" viewBox="0 0 19 22" fill="none" xmlns="http://www.w3.org/2000/svg">
<g clip-path="url(#clip0)">
<path d="M16.0231 18.8208C15.1805 20.1041 13.9923 21.7032 12.5199 21.7167C11.2113 21.7285 10.8747 20.8661 9.0991 20.8751C7.32353 20.8842 6.95159 21.7312 5.64209 21.7195C4.16969 21.7059 3.0448 20.2624 2.20046 18.9783C-0.156104 15.3891 -0.403162 11.1783 1.05114 8.94027C2.08281 7.34751 3.71358 6.4181 5.24752 6.4181C6.8086 6.4181 7.78869 7.2733 9.0801 7.2733C10.3317 7.2733 11.0946 6.41629 12.8991 6.41629C14.2638 6.41629 15.71 7.15928 16.7389 8.44163C13.3652 10.2923 13.9136 15.1095 17.3226 16.3982C16.852 17.438 16.6285 17.9023 16.0231 18.8208ZM8.7896 5.42986C8.54887 4.11765 9.16788 2.76652 9.9172 1.8552C10.7443 0.852489 12.1588 0.0823529 13.3679 0C13.5733 1.37104 13.0113 2.71312 12.2701 3.66335C11.4747 4.68145 10.11 5.47059 8.7896 5.42986Z" fill="white"/>
</g>
<defs>
<clipPath id="clip0">
<rect width="18.0995" height="21.7195" fill="white"/>
</clipPath>
</defs>
</svg>
