<svg width="19" height="22" viewBox="0 0 19 22" fill="none" xmlns="http://www.w3.org/2000/svg">
<g clip-path="url(#clip0)">
<path fill-rule="evenodd" clip-rule="evenodd" d="M16.6235 16.8672C16.542 16.7857 16.6235 16.4147 16.6235 16.2156C16.7176 15.8536 16.6516 15.4681 16.4425 15.1568C16.3984 15.1153 16.3498 15.0789 16.2977 15.0482V14.469C16.2629 12.2369 15.3908 10.0993 13.8543 8.47984C13.2484 7.90506 12.8377 7.15506 12.6796 6.33504V6.12689C12.6796 4.87803 12.6796 2.27169 11.3221 0.90608C10.7253 0.305015 9.90644 -0.0225169 9.0597 0.001103C7.16015 0.001103 5.89318 0.90608 5.89318 5.43097C5.81188 6.61214 5.4421 7.75534 4.81626 8.76038C4.57191 9.23097 4.32757 9.71965 4.11037 10.2355C3.50033 11.6284 3.03631 13.0808 2.72576 14.5694C2.33198 14.7993 2.07044 15.2022 2.02078 15.6554L1.94838 15.954C1.79015 16.0126 1.62643 16.055 1.4597 16.0807C0.916709 16.1893 0.0117314 16.3703 0.0117314 17.1939C0.0144463 17.4156 0.0388807 17.6373 0.0841296 17.8545C0.190516 18.3497 0.165558 18.8642 0.0117314 19.3468C0.00650621 19.3858 0.00650621 19.4254 0.0117314 19.4645C0.0117314 20.5414 1.70404 20.6862 2.72666 20.8129H3.12485C3.37191 20.8862 3.61083 20.983 3.83979 21.1025C4.4751 21.4463 5.17436 21.6558 5.89408 21.7178C6.19157 21.7148 6.47404 21.5867 6.67236 21.3649H6.71761C7.44684 21.0061 8.24792 20.8174 9.0606 20.8129H11.8298C11.876 20.9966 11.9656 21.1676 12.0923 21.3106C12.3629 21.5911 12.743 21.7396 13.133 21.7178C14.0314 21.6922 14.8669 21.2508 15.3945 20.5233L15.6841 20.2246C16.0054 19.9803 16.3719 19.7993 16.7611 19.6907C17.4126 19.4554 18.0823 19.2111 18.0823 18.5504C18.0823 17.8898 17.5665 17.5459 17.1411 17.2563C16.9553 17.1434 16.7826 17.0131 16.6235 16.8672ZM10.8697 4.0554C10.8697 4.83368 10.571 5.26807 10.1366 5.36762C10.3168 5.2158 10.4143 4.9874 10.3991 4.75223C10.3991 4.38119 10.2 4.0735 9.96467 4.0735C9.72938 4.0735 9.53028 4.37214 9.53028 4.75223C9.51509 4.9874 9.6125 5.2158 9.79273 5.36762C9.35834 5.25902 9.0597 4.73413 9.0597 4.0554C9.0597 3.37667 9.43979 2.71603 9.96467 2.71603C10.4896 2.71603 10.8697 3.27712 10.8697 4.0554ZM8.15472 7.24002C7.63521 7.05356 7.16918 6.74287 6.79725 6.33504C7.26535 5.81658 7.91158 5.49347 8.60721 5.43006C9.25485 5.52791 9.86263 5.80361 10.3629 6.22644C9.71578 6.73235 8.95962 7.07913 8.15472 7.24002ZM8.15472 4.0545C8.15472 4.83278 7.85608 5.25812 7.42169 5.36671C7.60191 5.21489 7.69932 4.98649 7.68413 4.75133C7.68413 4.38029 7.48503 4.0726 7.24974 4.0726C7.01445 4.0726 6.81535 4.37124 6.81535 4.75133C6.80016 4.98649 6.89757 5.21489 7.07779 5.36671C6.64341 5.25812 6.34476 4.74228 6.34476 4.0545C6.34476 3.36671 6.72485 2.71513 7.24974 2.71513C7.77463 2.71513 8.15472 3.27622 8.15472 4.0545ZM5.89227 20.812C5.29852 20.7414 4.72393 20.5571 4.19997 20.269C3.91411 20.112 3.61022 19.9905 3.29499 19.907H2.7882C1.44069 19.7984 1.0244 19.6355 0.933903 19.5088C1.09673 18.9182 1.11226 18.2968 0.979152 17.6988C0.943861 17.532 0.92267 17.3625 0.915804 17.1921C1.1484 17.0653 1.40359 16.9854 1.66694 16.9568C1.99512 16.9238 2.30805 16.8017 2.57191 16.6038C2.7497 16.392 2.86557 16.1352 2.90675 15.8617C3.0244 15.3821 3.06965 15.3821 3.133 15.3821C3.40449 15.6988 3.61988 16.0608 3.76648 16.45C4.0575 17.2299 4.53615 17.9261 5.16015 18.4771C5.87671 18.9052 6.26301 19.7243 6.13752 20.5495C6.08232 20.7215 6.00087 20.812 5.89227 20.812ZM6.7339 18.9025C6.48574 18.4354 6.12877 18.035 5.69318 17.735C5.20783 17.2657 4.83368 16.6936 4.59816 16.0608C4.41243 15.5226 4.10237 15.0359 3.69318 14.64C3.99014 13.2496 4.42362 11.8919 4.9873 10.5866C5.17734 10.107 5.42169 9.68165 5.65698 9.18391C5.9873 8.57576 6.27236 7.94409 6.50766 7.29341C6.97005 7.72013 7.53911 8.01404 8.15472 8.14409C9.0597 7.91513 9.92214 7.54952 10.7158 7.05812C12.0371 9.55104 12.7123 12.3355 12.6796 15.1568C12.1951 15.965 11.9271 16.8845 11.9013 17.8264V17.8355C10.571 19.174 7.91037 19.0835 6.7339 18.9025ZM15.076 19.5993L14.7683 19.916C14.3996 20.4631 13.7905 20.7997 13.1312 20.821C12.9979 20.8363 12.8641 20.7971 12.7601 20.7124C12.6244 20.5586 12.6606 20.2056 12.6697 20.0608L12.6787 19.907C12.6787 19.6355 12.9321 17.0744 13.0135 16.6672C13.0497 16.7215 13.0887 16.773 13.1312 16.821C13.3665 17.0699 13.6941 17.2083 14.0362 17.2011H14.3529C14.8329 17.248 15.3118 17.1014 15.6832 16.7939C15.6923 17.0635 15.7982 17.3206 15.9819 17.5178C16.1837 17.7088 16.4054 17.8789 16.6425 18.0246C16.9864 18.2509 17.2036 18.4047 17.2217 18.5043C16.9933 18.6539 16.7429 18.7669 16.4796 18.8391V18.8482C15.9633 18.9965 15.4852 19.2525 15.076 19.5993Z" fill="white"/>
</g>
<defs>
<clipPath id="clip0">
<rect width="18.0995" height="21.7195" fill="white"/>
</clipPath>
</defs>
</svg>
