<svg width="23" height="22" viewBox="0 0 23 22" fill="none" xmlns="http://www.w3.org/2000/svg">
<g clip-path="url(#clip0)">
<path fill-rule="evenodd" clip-rule="evenodd" d="M11.0863 21.7195C5.08901 21.7195 0.226562 16.857 0.226562 10.8597C0.226562 4.86244 5.08901 0 11.0863 0C17.0836 0 21.946 4.86244 21.946 10.8597C21.946 16.857 17.0836 21.7195 11.0863 21.7195ZM8.47543 17.2679C10.2754 17.2679 11.7659 15.8751 11.7659 13.9937C11.7659 12.1285 10.308 10.7276 8.49987 10.7276C7.62643 10.7227 6.78748 11.0681 6.17063 11.6865C5.55377 12.3049 5.21048 13.1447 5.21751 14.0181C5.21751 15.8995 6.66729 17.2679 8.47543 17.2679ZM8.49172 11.6561C9.73787 11.6561 10.7153 12.6986 10.7153 13.9937C10.7153 15.2887 9.73787 16.3394 8.49172 16.3394C7.23742 16.3394 6.26819 15.2887 6.26819 13.9937C6.26819 12.6986 7.23742 11.6561 8.49172 11.6561ZM16.5596 15.4027C16.5596 14.4579 15.9569 13.7819 14.8166 13.5538L14.0094 13.3991C13.4971 13.2932 13.2039 12.9104 13.2039 12.552C13.2039 12.0633 13.6836 11.6235 14.3035 11.6235C14.9795 11.6235 15.4112 12.1285 15.5252 12.5846L16.4528 12.2914C16.3234 11.5991 15.7288 10.7276 14.2872 10.7276C13.1379 10.7276 12.1768 11.5909 12.1768 12.6416C12.1768 13.4724 12.7469 14.1647 13.7976 14.3765L14.5795 14.5394C15.118 14.6534 15.5243 14.9466 15.5243 15.4679C15.5243 16.0054 15.003 16.3638 14.3686 16.3638C13.6021 16.3638 13.0971 15.8833 12.9587 15.1421L11.9913 15.4027C12.08 16.3068 12.8619 17.2679 14.3533 17.2679C15.7614 17.2679 16.5596 16.3312 16.5596 15.4027ZM6.98131 7.14932V9.04977H7.72882V7.16199C7.72882 6.64887 8.00756 6.30679 8.47634 6.30679C8.99579 6.30679 9.19851 6.66154 9.19851 7.14299V9.04977H9.95235V6.95928C9.95235 6.19276 9.5786 5.59095 8.72339 5.59095C8.20394 5.59095 7.87453 5.781 7.54511 6.14842C7.35507 5.80633 7.01932 5.59095 6.49987 5.59095C6.2338 5.59095 5.8157 5.69231 5.49263 6.12308V5.66697H4.75778V9.04977H5.51163V7.16833C5.51163 6.6552 5.79036 6.30679 6.25281 6.30679C6.77226 6.30679 6.98131 6.67421 6.98131 7.14932ZM13.5949 6.89593C13.5949 6.66787 13.5632 6.47149 13.4809 6.28778C13.2591 5.8 12.784 5.59728 12.2139 5.59728C11.9668 5.59728 11.7261 5.64163 11.5297 5.73032C11.061 5.93303 10.8012 6.3638 10.7695 6.64887L11.4537 6.8009C11.5107 6.47783 11.7831 6.24344 12.1949 6.24344C12.6383 6.24344 12.86 6.4905 12.86 6.75656C12.86 6.92127 12.7714 7.04163 12.5433 7.04163H12.1252C11.5361 7.04163 10.7189 7.28869 10.7189 8.07421V8.11222C10.7189 8.69502 11.2003 9.10679 11.8591 9.10679C12.1759 9.10679 12.6067 8.99909 12.8537 8.58733V9.04977H13.5949V6.89593ZM12.0112 8.50498C11.6944 8.50498 11.4727 8.32127 11.4727 8.04253C11.4727 7.72579 11.8401 7.57376 12.1252 7.57376H12.8537V7.68145C12.8537 8.18823 12.5243 8.50498 12.0112 8.50498ZM16.1035 9.10679C17.022 9.10679 17.5478 8.51765 17.6999 7.99819L17.0094 7.77647C16.908 8.0362 16.699 8.42262 16.1162 8.42262C15.5397 8.42262 15.1152 7.97285 15.1152 7.33937C15.1152 6.69955 15.5587 6.28145 16.1098 6.28145C16.6736 6.28145 16.9207 6.64887 16.9967 6.91493L17.6809 6.68688C17.5352 6.11674 16.9524 5.59728 16.1162 5.59728C15.1089 5.59728 14.3424 6.38914 14.3424 7.35204C14.3424 8.34661 15.1089 9.10679 16.1035 9.10679Z" fill="white"/>
</g>
<defs>
<clipPath id="clip0">
<rect width="22.6244" height="21.7195" fill="white"/>
</clipPath>
</defs>
</svg>
