<?xml version="1.0" encoding="UTF-8"?>
<svg width="263px" height="98px" viewBox="0 0 263 98" version="1.1" xmlns="http://www.w3.org/2000/svg" xmlns:xlink="http://www.w3.org/1999/xlink">
    <title>behance</title>
    <defs>
        <rect id="path-1" x="0" y="0" width="263" height="237"></rect>
        <filter x="-3.4%" y="-2.5%" width="106.8%" height="107.6%" filterUnits="objectBoundingBox" id="filter-3">
            <feOffset dx="0" dy="3" in="SourceAlpha" result="shadowOffsetOuter1"></feOffset>
            <feGaussianBlur stdDeviation="2.5" in="shadowOffsetOuter1" result="shadowBlurOuter1"></feGaussianBlur>
            <feColorMatrix values="0 0 0 0 0   0 0 0 0 0   0 0 0 0 0  0 0 0 0.123630764 0" type="matrix" in="shadowBlurOuter1"></feColorMatrix>
        </filter>
        <polygon id="path-4" points="0.00901591512 0.145464481 87.1538136 0.145464481 87.1538136 54.9909836 0.00901591512 54.9909836"></polygon>
    </defs>
    <g id="页面-1" stroke="none" stroke-width="1" fill="none" fill-rule="evenodd">
        <g id="桌面端-HD备份-3" transform="translate(-893.000000, -859.000000)">
            <g id="矩形" transform="translate(893.000000, 859.000000)">
                <mask id="mask-2" fill="white">
                    <use xlink:href="#path-1"></use>
                </mask>
                <g id="蒙版">
                    <use fill="black" fill-opacity="1" filter="url(#filter-3)" xlink:href="#path-1"></use>
                    <use fill="#FFFFFF" fill-rule="evenodd" xlink:href="#path-1"></use>
                </g>
                <rect fill="#0050FF" mask="url(#mask-2)" x="-4" y="-2" width="272" height="100"></rect>
                <g id="behance-seeklogo.com" mask="url(#mask-2)">
                    <g transform="translate(88.000000, 22.000000)" id="编组">
                        <mask id="mask-5" fill="white">
                            <use xlink:href="#path-4"></use>
                        </mask>
                        <g id="Clip-2"></g>
                        <path d="M29.7887347,6 C31.8925504,6 33.810358,6.18442219 35.5427627,6.55471301 C37.2751673,6.92440115 38.7602066,7.53106577 39.9976385,8.3725372 C41.2347073,9.21449078 42.1939137,10.334283 42.8744104,11.7314318 C43.5552703,13.1285805 43.8954581,14.8535909 43.8954581,16.90803 C43.8954581,19.1263999 43.3899566,20.9750816 42.3794377,22.4539547 C41.3684347,23.9327073 39.8737138,25.1447106 37.8941858,26.0896031 C40.6162939,26.8705648 42.6477395,28.2368559 43.9884017,30.1875123 C45.3278536,32.1393741 46,34.4920226 46,37.2435293 C46,39.4622608 45.5665055,41.3831445 44.7002427,43.0064214 C43.8343429,44.6296982 42.668313,45.954404 41.2048153,46.979936 C39.7403495,48.0077582 38.0697862,48.7671437 36.1933674,49.2611059 C34.3156175,49.7536216 32.3884913,50 30.4081162,50 L9,50 L9,6 L29.7887347,6 Z M63.3755798,16 C66.1050656,16 68.48234,16.5310704 70.5088591,17.5933336 C72.5347716,18.655719 74.1997373,20.0843767 75.5027855,21.8746611 C76.8044992,23.6669016 77.7445381,25.7089065 78.3250861,27.999698 C78.9040569,30.2919564 79.1095843,32.6875193 78.945308,35.187487 L55.809043,35.187487 C55.9329176,38.0617957 56.6549325,40.1462227 57.9793342,41.4371004 C59.3024014,42.7300565 61.2045607,43.3745784 63.6856907,43.3745784 C65.4633689,43.3745784 66.9941473,42.9276186 68.2752354,42.0313761 C69.5571728,41.1363561 70.3431269,40.187789 70.6326123,39.1871418 L78.3861135,39.1871418 C77.1463977,43.0619755 75.2427825,45.8337133 72.6798783,47.4999101 C70.1149115,49.1667182 67.0134382,50 63.3749732,50 C60.852592,50 58.5777173,49.5936284 56.5518048,48.7808853 C54.5251644,47.9686311 52.8087562,46.8121103 51.4039149,45.3123009 C49.9974963,43.8124915 48.912472,42.0218403 48.1470222,39.9376578 C47.3816937,37.8546978 47,35.5624393 47,33.0623494 C47,30.6461256 47.3918851,28.3960447 48.1786884,26.3124735 C48.9633079,24.2295135 50.0793918,22.4272482 51.5282747,20.9059221 C52.9744884,19.3855741 54.7019373,18.187487 56.7072243,17.3120276 C58.7123899,16.4368128 60.9357008,16 63.3755798,16 Z M29.2935199,30.4026715 L18.7139311,30.4026715 L18.7139311,42.4809989 L29.1079958,42.4817222 C30.0563104,42.4817222 30.9640832,42.3887878 31.8301039,42.2042451 C32.6964878,42.0190997 33.4591573,41.7111267 34.1198068,41.2793618 C34.779004,40.8488023 35.3050789,40.2629906 35.6974265,39.5230117 C36.0886849,38.7841176 36.2849798,37.8393456 36.2849798,36.6882136 C36.2849798,34.4294637 35.6449037,32.8170352 34.3670511,31.8510487 C33.0877462,30.8856648 31.3969725,30.4026715 29.2935199,30.4026715 Z M63.1280734,22.6866707 C61.7217762,22.6866707 60.5541285,22.9267772 59.6236744,23.4056452 C58.6932203,23.8858581 57.9483959,24.4781777 57.3900507,25.1871274 C56.832312,25.8960771 56.4383644,26.6461041 56.2120902,27.4372083 C55.9837534,28.2288016 55.8495661,28.9372622 55.8084364,29.5622236 L70.1367503,29.5622236 C69.7235117,27.3116537 68.9897281,25.603646 67.9349142,24.4367337 C66.8805855,23.2705548 65.2776178,22.6866707 63.1280734,22.6866707 Z M27.8090857,13.5186395 L18.7139311,13.5186395 L18.7139311,23.8104824 L28.5513028,23.8104824 C30.2840705,23.8101208 31.7066633,23.3995704 32.8206546,22.5772645 C33.9342827,21.7560433 34.4908548,20.4203686 34.4908548,18.5716869 C34.4908548,17.54507 34.3056938,16.7023932 33.9342827,16.0452234 C33.5631137,15.3882947 33.068262,14.8738412 32.4494855,14.5046352 C31.830467,14.1345855 31.1191101,13.8786846 30.3148096,13.7339192 C29.5102671,13.5908414 28.6751065,13.5186395 27.8090857,13.5186395 Z M72,8 L72,13 L54,13 L54,8 L72,8 Z" id="形状结合" fill="#FFFFFF" mask="url(#mask-5)"></path>
                    </g>
                </g>
            </g>
        </g>
    </g>
</svg>