<?xml version="1.0" encoding="UTF-8"?>
<svg width="263px" height="98px" viewBox="0 0 263 98" version="1.1" xmlns="http://www.w3.org/2000/svg" xmlns:xlink="http://www.w3.org/1999/xlink">
    <title>dribbble</title>
    <defs>
        <rect id="path-1" x="0" y="0" width="263" height="237"></rect>
        <filter x="-3.4%" y="-2.5%" width="106.8%" height="107.6%" filterUnits="objectBoundingBox" id="filter-3">
            <feOffset dx="0" dy="3" in="SourceAlpha" result="shadowOffsetOuter1"></feOffset>
            <feGaussianBlur stdDeviation="2.5" in="shadowOffsetOuter1" result="shadowBlurOuter1"></feGaussianBlur>
            <feColorMatrix values="0 0 0 0 0   0 0 0 0 0   0 0 0 0 0  0 0 0 0.123630764 0" type="matrix" in="shadowBlurOuter1"></feColorMatrix>
        </filter>
    </defs>
    <g id="页面-1" stroke="none" stroke-width="1" fill="none" fill-rule="evenodd">
        <g id="桌面端-HD备份-3" transform="translate(-610.000000, -859.000000)">
            <g id="矩形" transform="translate(610.000000, 859.000000)">
                <mask id="mask-2" fill="white">
                    <use xlink:href="#path-1"></use>
                </mask>
                <g id="蒙版">
                    <use fill="black" fill-opacity="1" filter="url(#filter-3)" xlink:href="#path-1"></use>
                    <use fill="#FFFFFF" fill-rule="evenodd" xlink:href="#path-1"></use>
                </g>
                <rect fill="#F8F8F8" mask="url(#mask-2)" x="-4" y="-2" width="272" height="100"></rect>
                <g id="dribbble-seeklogo.com" mask="url(#mask-2)" fill-rule="nonzero">
                    <g transform="translate(101.000000, 17.000000)">
                        <path d="M31.5,2 C47.8065327,2 61,15.1989946 61,31.4876414 C61,47.7762882 47.8065327,61 31.5,61 C15.1934673,61 2,47.8010054 2,31.5123586 C2,15.2237118 15.1934673,2 31.5,2 L31.5,2 L31.5,2 Z" id="路径" fill="#E74D89"></path>
                        <path d="M31.5,63 C14.1257812,63 0,48.8822839 0,31.5123191 C0,14.1177161 14.1257812,0 31.5,0 C48.8742187,0 63,14.1177161 63,31.4876809 C63,48.8576457 48.8742187,63 31.5,63 L31.5,63 L31.5,63 Z M58.0535156,35.7993743 C57.1429688,35.5037153 49.7355469,33.3109112 41.2945313,34.6413766 C44.8136719,44.2995698 46.2410156,52.1838092 46.5117188,53.8099335 C52.565625,49.7446226 56.8722656,43.2894016 58.0535156,35.7993743 L58.0535156,35.7993743 L58.0535156,35.7993743 Z M42.0082031,56.2983966 C41.6144531,53.9331248 40.0394531,45.7039499 36.2742188,35.8979273 C36.225,35.9225655 36.1511719,35.9472038 36.1019531,35.9472038 C20.9179688,41.2444271 15.4792969,51.7649589 14.9871094,52.7504889 C19.5398438,56.2983966 25.2738281,58.4172859 31.5,58.4172859 C35.2160156,58.4419241 38.784375,57.6781384 42.0082031,56.2983966 L42.0082031,56.2983966 L42.0082031,56.2983966 Z M11.5171875,49.5228784 C12.1324219,48.488072 19.5152344,36.267501 33.3949219,31.7587016 C33.7394531,31.6355104 34.1085937,31.5369574 34.453125,31.4384044 C33.7886719,29.910833 33.0503906,28.3832616 32.2628906,26.8803285 C18.8261719,30.8963629 5.78320312,30.7238952 4.60195312,30.6992569 C4.60195312,30.9702777 4.57734375,31.2412984 4.57734375,31.5123191 C4.60195312,38.4356668 7.21054687,44.7430583 11.5171875,49.5228784 L11.5171875,49.5228784 L11.5171875,49.5228784 Z M5.16796875,26.0179898 C6.37382812,26.0426281 17.4480469,26.0919046 30.0480469,22.7411029 C25.59375,14.807587 20.7703125,8.15526007 20.08125,7.1943684 C12.5261719,10.7422761 6.91523437,17.690262 5.16796875,26.0179898 L5.16796875,26.0179898 L5.16796875,26.0179898 Z M25.2,5.37113805 C25.9382813,6.35666797 30.8355469,13.0089949 35.240625,21.1149785 C44.8136719,17.5177943 48.8496094,12.0973797 49.3417969,11.4075088 C44.5921875,7.1943684 38.3414063,4.63199061 31.5,4.63199061 C29.334375,4.63199061 27.2179688,4.90301134 25.2,5.37113805 L25.2,5.37113805 L25.2,5.37113805 Z M52.3195313,14.511928 C51.7535156,15.2757137 47.25,21.065702 37.3078125,25.1310129 C37.9230469,26.4122018 38.5382812,27.7180289 39.1042969,29.0238561 C39.3011719,29.4919828 39.4980469,29.9601095 39.6949219,30.403598 C48.6527344,29.2702386 57.5367188,31.0934689 58.4226563,31.2659366 C58.3488281,24.9339069 56.0847656,19.0946422 52.3195313,14.511928 L52.3195313,14.511928 L52.3195313,14.511928 Z" id="形状" fill="#B2215A"></path>
                    </g>
                </g>
            </g>
        </g>
    </g>
</svg>