<?xml version="1.0" encoding="UTF-8"?>
<svg width="263px" height="98px" viewBox="0 0 263 98" version="1.1" xmlns="http://www.w3.org/2000/svg" xmlns:xlink="http://www.w3.org/1999/xlink">
    <title>instagram</title>
    <defs>
        <path d="M16.2587213,0.063442623 C11.7768689,0.081 7.72081967,1.9047541 4.78106557,4.84465574 L4.78106557,4.84465574 C3.38016393,6.24555738 2.2327377,7.89993443 1.41344262,9.73298361 L1.41344262,9.73298361 C0.505180328,11.7652131 0,14.0172787 0,16.3872295 L0,16.3872295 L0,17.6854426 L0,27.2303115 L0,42.5643934 L0,53.3608525 L0,55.6762131 C0,58.429918 0.681934426,61.0244262 1.88601639,63.2999508 L1.88601639,63.2999508 C2.65293443,64.7492459 3.63172131,66.0692951 4.78106557,67.2189344 L4.78106557,67.2189344 C7.73513115,70.1728525 11.8161148,72 16.3237869,72 L16.3237869,72 L18.8001148,72 L35.7536066,72 L52.6743443,72 L55.6127705,72 C60.1204426,72 64.2014262,70.1728525 67.1553443,67.2189344 L67.1553443,67.2189344 C68.3049836,66.0692951 69.283623,64.7492459 70.0506885,63.2999508 L70.0506885,63.2999508 C71.2547705,61.0244262 71.9365574,58.429918 71.9365574,55.6762131 L71.9365574,55.6762131 L71.9365574,16.3872295 C71.9365574,14.0172787 71.4315246,11.7652131 70.5232623,9.73298361 L70.5232623,9.73298361 C69.7038197,7.89993443 68.5563934,6.24555738 67.1553443,4.84465574 L67.1553443,4.84465574 C64.2155902,1.9047541 60.1596885,0.081 55.6778361,0.063442623 L55.6778361,0.063442623 L16.2587213,0.063442623 Z" id="path-1"></path>
    </defs>
    <g id="页面-1" stroke="none" stroke-width="1" fill="none" fill-rule="evenodd">
        <g id="桌面端-HD备份-3" transform="translate(-610.000000, -345.000000)">
            <g id="编组-5备份" transform="translate(606.000000, 343.000000)">
                <g id="编组" transform="translate(4.000000, 2.000000)">
                    <g id="编组-8" transform="translate(96.000000, 12.000000)">
                        <g id="编组">
                            <mask id="mask-2" fill="white">
                                <use xlink:href="#path-1"></use>
                            </mask>
                            <g id="Clip-2"></g>
                            <path d="M16.2587213,0.063442623 C11.7768689,0.081 7.72081967,1.9047541 4.78106557,4.84465574 L4.78106557,4.84465574 C3.38016393,6.24555738 2.2327377,7.89993443 1.41344262,9.73298361 L1.41344262,9.73298361 C0.505180328,11.7652131 0,14.0172787 0,16.3872295 L0,16.3872295 L0,17.6854426 L0,27.2303115 L0,42.5643934 L0,53.3608525 L0,55.6762131 C0,58.429918 0.681934426,61.0244262 1.88601639,63.2999508 L1.88601639,63.2999508 C2.65293443,64.7492459 3.63172131,66.0692951 4.78106557,67.2189344 L4.78106557,67.2189344 C7.73513115,70.1728525 11.8161148,72 16.3237869,72 L16.3237869,72 L18.8001148,72 L35.7536066,72 L52.6743443,72 L55.6127705,72 C60.1204426,72 64.2014262,70.1728525 67.1553443,67.2189344 L67.1553443,67.2189344 C68.3049836,66.0692951 69.283623,64.7492459 70.0506885,63.2999508 L70.0506885,63.2999508 C71.2547705,61.0244262 71.9365574,58.429918 71.9365574,55.6762131 L71.9365574,55.6762131 L71.9365574,16.3872295 C71.9365574,14.0172787 71.4315246,11.7652131 70.5232623,9.73298361 L70.5232623,9.73298361 C69.7038197,7.89993443 68.5563934,6.24555738 67.1553443,4.84465574 L67.1553443,4.84465574 C64.2155902,1.9047541 60.1596885,0.081 55.6778361,0.063442623 L55.6778361,0.063442623 L16.2587213,0.063442623 Z" id="Fill-1" mask="url(#mask-2)"></path>
                        </g>
                        <g id="编组" transform="translate(10.000000, 10.000000)" fill="#FFFFFF">
                            <path d="M48.1016485,38.108063 C48.1016485,43.7009655 43.5677125,48.2349014 37.9749577,48.2349014 L15.1092223,48.2349014 C9.51646741,48.2349014 4.98253148,43.7009655 4.98253148,38.108063 L4.98253148,15.2424752 C4.98253148,9.6495727 9.51646741,5.11563677 15.1092223,5.11563677 L37.9749577,5.11563677 C43.5677125,5.11563677 48.1016485,9.6495727 48.1016485,15.2424752 L48.1016485,38.108063 Z M37.7135008,0.11710195 L15.3706791,0.11710195 C6.94530306,0.11710195 0.11509415,6.94716323 0.11509415,15.3725393 L0.11509415,37.715361 C0.11509415,46.140737 6.94530306,52.970946 15.3706791,52.970946 L37.7135008,52.970946 C46.1388769,52.970946 52.9690858,46.140737 52.9690858,37.715361 L52.9690858,15.3725393 C52.9690858,6.94716323 46.1388769,0.11710195 37.7135008,0.11710195 L37.7135008,0.11710195 Z" id="Fill-3"></path>
                            <path d="M26.5421343,35.5651554 C21.6323265,35.5651554 17.6521593,31.5849883 17.6521593,26.6751805 C17.6521593,21.7655203 21.6323265,17.7853532 26.5421343,17.7853532 C31.4517944,17.7853532 35.4319616,21.7655203 35.4319616,26.6751805 C35.4319616,31.5849883 31.4517944,35.5651554 26.5421343,35.5651554 M26.5421343,12.9614674 C18.9681538,12.9614674 12.8282735,19.1013476 12.8282735,26.6751805 C12.8282735,34.249161 18.9681538,40.3890412 26.5421343,40.3890412 C34.1159671,40.3890412 40.2558474,34.249161 40.2558474,26.6751805 C40.2558474,19.1013476 34.1159671,12.9614674 26.5421343,12.9614674" id="Fill-5"></path>
                            <path d="M40.7131827,9.24508969 C38.9486813,9.24508969 37.5182719,10.6753515 37.5182719,12.4398529 C37.5182719,14.2043543 38.9486813,15.6347638 40.7131827,15.6347638 C42.4776841,15.6347638 43.907946,14.2043543 43.907946,12.4398529 C43.907946,10.6753515 42.4776841,9.24508969 40.7131827,9.24508969" id="Fill-7"></path>
                        </g>
                    </g>
                </g>
            </g>
        </g>
    </g>
</svg>