<?xml version="1.0" encoding="UTF-8"?>
<svg width="263px" height="98px" viewBox="0 0 263 98" version="1.1" xmlns="http://www.w3.org/2000/svg" xmlns:xlink="http://www.w3.org/1999/xlink">
    <title>invision</title>
    <defs>
        <rect id="path-1" x="0" y="0" width="263" height="237"></rect>
        <filter x="-3.4%" y="-2.5%" width="106.8%" height="107.6%" filterUnits="objectBoundingBox" id="filter-3">
            <feOffset dx="0" dy="3" in="SourceAlpha" result="shadowOffsetOuter1"></feOffset>
            <feGaussianBlur stdDeviation="2.5" in="shadowOffsetOuter1" result="shadowBlurOuter1"></feGaussianBlur>
            <feColorMatrix values="0 0 0 0 0   0 0 0 0 0   0 0 0 0 0  0 0 0 0.123630764 0" type="matrix" in="shadowBlurOuter1"></feColorMatrix>
        </filter>
    </defs>
    <g id="页面-1" stroke="none" stroke-width="1" fill="none" fill-rule="evenodd">
        <g id="桌面端-HD备份-3" transform="translate(-893.000000, -1594.000000)">
            <g id="矩形" transform="translate(893.000000, 1594.000000)">
                <mask id="mask-2" fill="white">
                    <use xlink:href="#path-1"></use>
                </mask>
                <g id="蒙版">
                    <use fill="black" fill-opacity="1" filter="url(#filter-3)" xlink:href="#path-1"></use>
                    <use fill="#FFFFFF" fill-rule="evenodd" xlink:href="#path-1"></use>
                </g>
                <rect fill="#000000" mask="url(#mask-2)" x="-4" y="-2" width="272" height="100"></rect>
                <g id="invision-studio-2-2" mask="url(#mask-2)">
                    <g transform="translate(60.000000, 30.000000)" id="invision-studio-2">
                        <g transform="translate(0.000000, -0.000000)">
                            <polygon id="路径" fill="#000000" fill-rule="nonzero" points="0 0 144 0 144 35.5068493 0 35.5068493"></polygon>
                            <polygon id="路径" fill="#FF3366" fill-rule="nonzero" points="137.350356 34.7868493 142.834192 34.7868493 142.834192 29.2852603 137.350356 29.2852603"></polygon>
                            <path d="M20.6492055,25.8884384 C20.6492055,17.8895342 2.35528767,24.1781918 2.35528767,11.0465753 C2.35528767,5.82115068 6.77983562,1.33742466 14.0587397,1.33742466 C21.753863,1.33742466 25.8095342,6.05391781 25.9476164,12.2025205 L20.4637808,12.2025205 C20.418411,8.96547945 18.2524932,6.37742466 14.0587397,6.37742466 C10.233863,6.37742466 7.88449315,7.9949589 7.88449315,10.9084932 C7.88449315,18.1223014 26.3164932,12.5260274 26.3164932,25.6576438 C26.3164932,31.6227945 21.1561644,35.5068493 13.3229589,35.5068493 C4.61391781,35.5068493 1.24865753,29.9598904 1.06520548,24.594411 L6.59441096,24.594411 C6.82520548,28.109589 9.17457534,30.4668493 13.5991233,30.4668493 C18.0690411,30.4648767 20.6492055,28.8473425 20.6492055,25.8884384 M38.3454247,34.857863 L32.861589,34.857863 L32.861589,15.254137 L29.2201644,15.254137 L29.2201644,10.8611507 L32.861589,10.8611507 L32.861589,4.61983562 L38.3454247,4.61983562 L38.3454247,10.8611507 L42.3537534,10.8611507 L42.3537534,15.254137 L38.3454247,15.254137 L38.3454247,34.857863 Z M61.4761644,24.9652603 L61.4761644,10.8631233 L66.96,10.8631233 L66.96,24.6890959 C66.96,30.8376986 64.1490411,35.4161096 56.4065753,35.4161096 C48.6660822,35.4161096 45.8551233,30.8376986 45.8551233,24.6890959 L45.8551233,10.8631233 L51.3389589,10.8631233 L51.3389589,24.9652603 C51.3389589,28.7112329 53.0906301,30.5595616 56.4085479,30.5595616 C59.7244932,30.5595616 61.4761644,28.7092603 61.4761644,24.9652603 M89.2642192,0.185424658 L94.7480548,0.185424658 L94.7480548,34.8618082 L89.6804384,34.8618082 L89.6804384,31.4393425 C88.1595616,33.9366575 85.3486027,35.4161096 81.6164384,35.4161096 C74.5663562,35.4161096 70.5580274,29.7290959 70.5580274,22.886137 C70.5580274,15.9978082 74.5663562,10.3107945 81.6164384,10.3107945 C85.3486027,10.3107945 87.9287671,11.9756712 89.2661918,14.0094247 L89.2661918,0.185424658 L89.2642192,0.185424658 Z M82.7664658,15.1673425 C78.6200548,15.1673425 76.0379178,18.4951233 76.0379178,22.8881096 C76.0379178,27.1883836 78.6180822,30.5635068 82.7664658,30.5635068 C86.9602192,30.5635068 89.4950137,27.1883836 89.4950137,22.8881096 C89.4950137,18.4951233 86.9602192,15.1673425 82.7664658,15.1673425 Z M99.3540822,3.46783562 C99.3540822,1.43408219 100.782247,0 102.810082,0 C104.790575,0 106.220712,1.43408219 106.220712,3.46783562 C106.220712,5.45621918 104.792548,6.8429589 102.810082,6.8429589 C100.784219,6.8429589 99.3540822,5.45621918 99.3540822,3.46783562 Z M100.046466,34.8618082 L105.530301,34.8618082 L105.530301,10.8650959 L100.046466,10.8650959 L100.046466,34.8618082 Z M109.217096,22.8881096 C109.217096,16.137863 114.008548,10.3107945 121.612932,10.3107945 C129.262685,10.3107945 134.054137,16.1358904 134.054137,22.8881096 C134.054137,29.6383562 129.260712,35.4180822 121.612932,35.4180822 C114.008548,35.4180822 109.217096,29.6383562 109.217096,22.8881096 M121.610959,30.5635068 C125.619288,30.5635068 128.568329,27.5118904 128.568329,22.8881096 C128.568329,18.2189589 125.619288,15.1673425 121.610959,15.1673425 C117.648,15.1673425 114.698959,18.2189589 114.698959,22.8881096 C114.698959,27.5118904 117.648,30.5635068 121.610959,30.5635068" id="形状" fill="#FFFFFF" fill-rule="nonzero"></path>
                        </g>
                    </g>
                </g>
            </g>
        </g>
    </g>
</svg>