<?xml version="1.0" encoding="UTF-8"?>
<svg width="114px" height="22px" viewBox="0 0 114 22" version="1.1" xmlns="http://www.w3.org/2000/svg" xmlns:xlink="http://www.w3.org/1999/xlink">
    <title>logo_text</title>
    <g id="页面-1" stroke="none" stroke-width="1" fill="none" fill-rule="evenodd">
        <g id="桌面端-HD备份-2" transform="translate(-36.000000, -2580.000000)" fill="#FFFFFF" fill-rule="nonzero">
            <g id="编组-41" transform="translate(-122.000000, -7.000000)">
                <g id="编组-39" transform="translate(1.000000, 2444.000000)">
                    <path d="M166.259277,164.030762 C167.484277,164.030762 168.592041,163.822607 169.582568,163.406299 C170.573096,162.98999 171.439209,162.415771 172.180908,161.683643 C172.922607,160.951514 173.535107,160.094971 174.018408,159.114014 C174.501709,158.133057 174.853418,157.073145 175.073535,155.934277 L171.628223,155.934277 C171.494238,156.604199 171.278906,157.257373 170.982227,157.893799 C170.685547,158.530225 170.309912,159.097266 169.855322,159.594922 C169.400732,160.092578 168.871973,160.492139 168.269043,160.793604 C167.666113,161.095068 166.996191,161.245801 166.259277,161.245801 C165.541504,161.245801 164.830908,161.085498 164.12749,160.764893 C163.424072,160.444287 162.794824,159.956201 162.239746,159.300635 C161.684668,158.645068 161.237256,157.814844 160.89751,156.809961 C160.557764,155.805078 160.387891,154.613574 160.387891,153.235449 C160.387891,152.220996 160.531445,151.263965 160.818555,150.364355 C161.105664,149.464746 161.507617,148.677588 162.024414,148.002881 C162.541211,147.328174 163.156104,146.794629 163.869092,146.402246 C164.58208,146.009863 165.369238,145.813672 166.230566,145.813672 C167.57041,145.813672 168.685352,146.165381 169.575391,146.868799 C170.46543,147.572217 171.164063,148.636914 171.671289,150.062891 L175.188379,150.062891 C174.891699,149.038867 174.492139,148.096191 173.989697,147.234863 C173.487256,146.373535 172.867578,145.629443 172.130664,145.002588 C171.39375,144.375732 170.537207,143.885254 169.561035,143.531152 C168.584863,143.177051 167.474707,143 166.230566,143 C164.766309,143 163.462354,143.282324 162.318701,143.846973 C161.175049,144.411621 160.208447,145.167676 159.418896,146.115137 C158.629346,147.062598 158.028809,148.151221 157.617285,149.381006 C157.205762,150.610791 157,151.89082 157,153.221094 C157,154.93418 157.217725,156.460645 157.653174,157.800488 C158.088623,159.140332 158.708301,160.272021 159.512207,161.195557 C160.316113,162.119092 161.2875,162.82251 162.426367,163.305811 C163.565234,163.789111 164.842871,164.030762 166.259277,164.030762 Z M180.188477,163.52832 L180.188477,154.843262 C180.188477,154.431738 180.250684,154.03457 180.375098,153.651758 C180.499512,153.268945 180.676563,152.931592 180.90625,152.639697 C181.135938,152.347803 181.418262,152.11333 181.753223,151.936279 C182.088184,151.759229 182.466211,151.670703 182.887305,151.670703 C182.925586,151.670703 182.990186,151.673096 183.081104,151.677881 C183.172021,151.682666 183.301221,151.701807 183.468701,151.735303 C183.636182,151.768799 183.846729,151.823828 184.100342,151.900391 C184.353955,151.976953 184.657813,152.082227 185.011914,152.216211 L185.011914,149.287695 C184.475977,148.991016 184.016602,148.806787 183.633789,148.73501 C183.250977,148.663232 182.973438,148.627344 182.801172,148.627344 C182.236523,148.627344 181.717334,148.802002 181.243604,149.151318 C180.769873,149.500635 180.312891,150.019824 179.872656,150.708887 L179.312793,148.914453 L176.800586,148.914453 L176.800586,163.52832 L180.188477,163.52832 Z M191.519336,163.81543 C192.610352,163.81543 193.584131,163.616846 194.440674,163.219678 C195.297217,162.82251 196.019775,162.279395 196.60835,161.590332 C197.196924,160.90127 197.644336,160.097363 197.950586,159.178613 C198.256836,158.259863 198.409961,157.283691 198.409961,156.250098 C198.409961,155.206934 198.254443,154.223584 197.943408,153.300049 C197.632373,152.376514 197.182568,151.567822 196.593994,150.873975 C196.00542,150.180127 195.282861,149.632227 194.426318,149.230273 C193.569775,148.82832 192.595996,148.627344 191.50498,148.627344 C190.413965,148.627344 189.440186,148.82832 188.583643,149.230273 C187.7271,149.632227 187.006934,150.180127 186.423145,150.873975 C185.839355,151.567822 185.394336,152.376514 185.088086,153.300049 C184.781836,154.223584 184.628711,155.206934 184.628711,156.250098 C184.628711,157.283691 184.781836,158.259863 185.088086,159.178613 C185.394336,160.097363 185.841748,160.90127 186.430322,161.590332 C187.018896,162.279395 187.741455,162.82251 188.597998,163.219678 C189.454541,163.616846 190.42832,163.81543 191.519336,163.81543 Z M191.50498,160.987402 C190.969043,160.987402 190.485742,160.862988 190.055078,160.61416 C189.624414,160.365332 189.25835,160.025586 188.956885,159.594922 C188.65542,159.164258 188.42334,158.661816 188.260645,158.087598 C188.097949,157.513379 188.016602,156.900879 188.016602,156.250098 C188.016602,155.599316 188.097949,154.984424 188.260645,154.40542 C188.42334,153.826416 188.65542,153.321582 188.956885,152.890918 C189.25835,152.460254 189.624414,152.118115 190.055078,151.864502 C190.485742,151.610889 190.969043,151.484082 191.50498,151.484082 C192.040918,151.484082 192.526611,151.610889 192.962061,151.864502 C193.39751,152.118115 193.768359,152.460254 194.074609,152.890918 C194.380859,153.321582 194.615332,153.826416 194.778027,154.40542 C194.940723,154.984424 195.02207,155.599316 195.02207,156.250098 C195.02207,156.900879 194.940723,157.513379 194.778027,158.087598 C194.615332,158.661816 194.380859,159.164258 194.074609,159.594922 C193.768359,160.025586 193.39751,160.365332 192.962061,160.61416 C192.526611,160.862988 192.040918,160.987402 191.50498,160.987402 Z M205.879199,163.52832 L208.448828,154.18291 L211.032813,163.52832 L214.262793,163.52832 L218.425879,148.914453 L215.009277,148.914453 L212.540137,157.944043 L210.128418,148.914453 L206.783594,148.914453 L204.285742,157.944043 L202.752998,152.101036 L201.91709,148.914453 L198.486133,148.914453 L202.649219,163.52832 L205.879199,163.52832 Z M228.665723,163.52832 L235.398438,143.502441 L231.80957,143.502441 L226.871289,158.345996 L221.86123,143.502441 L218.258008,143.502441 L225.076855,163.52832 L228.665723,163.52832 Z M240.972754,163.52832 L240.972754,155.474902 L245.509082,155.474902 C246.533105,155.474902 247.442285,155.305029 248.236621,154.965283 C249.030957,154.625537 249.700879,154.175732 250.246387,153.615869 C250.791895,153.056006 251.205811,152.414795 251.488135,151.692236 C251.770459,150.969678 251.911621,150.230371 251.911621,149.474316 C251.911621,148.756543 251.770459,148.043555 251.488135,147.335352 C251.205811,146.627148 250.794287,145.98833 250.253564,145.418896 C249.712842,144.849463 249.045313,144.387695 248.250977,144.033594 C247.456641,143.679492 246.542676,143.502441 245.509082,143.502441 L237.584863,143.502441 L237.584863,163.52832 L240.972754,163.52832 Z M240.972754,152.63252 L240.972754,146.35918 L244.791309,146.35918 C245.394238,146.35918 245.927783,146.435742 246.391943,146.588867 C246.856104,146.741992 247.246094,146.954932 247.561914,147.227686 C247.877734,147.500439 248.116992,147.82583 248.279688,148.203857 C248.442383,148.581885 248.52373,148.991016 248.52373,149.43125 C248.52373,149.881055 248.459131,150.299756 248.329932,150.687354 C248.200732,151.074951 247.990186,151.412305 247.698291,151.699414 C247.406396,151.986523 247.023584,152.213818 246.549854,152.381299 C246.076123,152.548779 245.489941,152.63252 244.791309,152.63252 L240.972754,152.63252 Z M258.275488,163.52832 L258.275488,148.153613 L266.91748,163.52832 L270.736035,163.52832 L270.736035,143.502441 L267.348145,143.502441 L267.348145,158.733594 L258.749219,143.502441 L254.887598,143.502441 L254.887598,163.52832 L258.275488,163.52832 Z" id="logo_text"></path>
                </g>
            </g>
        </g>
    </g>
</svg>