<?xml version="1.0" encoding="UTF-8"?>
<svg width="263px" height="98px" viewBox="0 0 263 98" version="1.1" xmlns="http://www.w3.org/2000/svg" xmlns:xlink="http://www.w3.org/1999/xlink">
    <title>logo-google</title>
    <defs>
        <rect id="path-1" x="0" y="0" width="263" height="237"></rect>
        <filter x="-3.4%" y="-2.5%" width="106.8%" height="107.6%" filterUnits="objectBoundingBox" id="filter-3">
            <feOffset dx="0" dy="3" in="SourceAlpha" result="shadowOffsetOuter1"></feOffset>
            <feGaussianBlur stdDeviation="2.5" in="shadowOffsetOuter1" result="shadowBlurOuter1"></feGaussianBlur>
            <feColorMatrix values="0 0 0 0 0   0 0 0 0 0   0 0 0 0 0  0 0 0 0.123630764 0" type="matrix" in="shadowBlurOuter1"></feColorMatrix>
        </filter>
    </defs>
    <g id="页面-1" stroke="none" stroke-width="1" fill="none" fill-rule="evenodd">
        <g id="桌面端-HD备份-3" transform="translate(-44.000000, -345.000000)">
            <g id="shutterstock_3815914" opacity="0.400000006" transform="translate(192.000000, 79.000000)">
                <polyline id="Fill-249" fill="#DFDFDF" points="27.35 320.725 27.65 320.325 27.55 320.275 27.35 320.725"></polyline>
                <polyline id="Fill-250" fill="#DFDFDF" points="27.384714 320 27.2308284 320.289296 27.2051808 320.36162 27 320.975651 27.7689151 323 29 321.807377 27.384714 320"></polyline>
                <polyline id="Fill-878" fill="#DFDFDF" points="146.984693 296.456017 144.463188 296.280084 143.358259 298.144265 141.941683 298.144265 140.62945 296.807882 140.525798 296.948628 139.904577 296.385644 139.904577 296.280084 139.282666 294.380718 139.351767 294.205489 136.10539 291.356087 126.089853 292.482055 118.767883 289.456721 117.45565 289 115.521505 289.069669 113 289.280788 115.970663 296.561576 119.389794 299.867699 118.560579 301.555947 118.491478 301.52076 118.456927 301.555947 117.317447 301.239972 118.560579 302.893033 123.119189 305.425053 123.568347 307.992963 123.119189 308.836735 127.678491 312.037298 128.299711 313.550317 129.33623 312.529909 127.64394 310.278677 126.814725 310.278677 124.88058 304.581281 117.904117 295.225194 117.628403 291.250528 117.731364 291.180155 119.76916 291.813512 121.46145 292.69247 123.568347 298.249824 125.640694 300.817734 126.918377 301.169599 126.918377 302.400422 129.992001 305.038001 129.439882 306.480647 131.926145 307.781844 137.79768 314.605208 138.902609 317.524279 137.79768 319.494018 139.455419 321.885996 142.701797 324.347643 145.844522 324.910626 148.089622 326.598874 154.478725 329.448276 158.554318 330.362421 160.902379 329.166784 162.836523 329.448276 167.15397 333 168.777159 329.553132 168.84626 329.517945 168.880811 329.448276 169.260868 329.237157 170.400348 329.026038 170.849506 328.885292 169.329969 326.598874 169.433621 326.493315 170.745854 325.262491 173.888579 325.262491 175.753623 324.031668 176.7549 325.192118 177.238609 324.137227 179 317.453906 179 317.348346 176.547596 316.539761 175.649971 316.75088 172.955712 317.453906 172.78365 317.453906 172.23084 317.629838 171.470726 318.087262 170.745854 322.061928 170.642202 322.167488 169.295418 323.152006 169.536582 323.574243 169.433621 323.679803 166.843014 323.574243 163.043827 324.734694 159.313741 323.222379 156.067363 318.474314 156.067363 316.504574 154.75513 314.710767 155.135187 309.962702 156.620173 306.445461 156.620173 306.199156 152.268176 304.862069 152.130664 304.897255 152.061563 304.862069 150.748639 302.681914 150.852291 302.611541 146.984693 296.456017"></polyline>
                <path d="M183.327755,249.445969 L183.327755,248.612828 L178.109524,249.723915 L177.279806,248.334883 L175.897636,248.612828 L175.793921,248.612828 L175.793921,247.501047 L175.690206,247.501047 L171.439979,249.445969 L170.402832,248.161167 L170.368261,248.091681 L167.984206,248.890774 L167.915063,248.890774 L168.087229,248.751801 L168.052658,248.682315 L172.856721,244.375553 L169.539235,244.201837 L168.121801,243.438183 L166.25632,242.326402 L165.426602,242.222867 L165.357459,242.222867 L162.938141,242.049151 L162.90357,242.083895 L163.007285,242.222867 L162.868998,242.188124 L161.452256,240.034743 L161.383113,240 L161.244827,240.069486 L160.692373,241.215316 L100.423777,241.215316 L100.596634,241.423775 L101.183659,241.423775 L101.149088,242.222867 L101.252802,242.326402 L101.079945,245.973043 L101.079945,246.04253 L101.045373,245.973043 L101.010802,246.181502 L100.734229,245.729841 L100.008918,246.181502 L99.9052032,246.181502 L100.043489,245.973043 L99.9743463,246.04253 L100.734229,244.8967 L99.524916,244.028122 L96.2074293,243.194981 L96.0691431,243.820357 L97.9353158,249.862887 L98.0044589,249.862887 L98.2118883,249.967117 L99.5940591,250.245062 L99.3174867,250.245062 L98.2118883,249.967117 L98.0044589,249.862887 L97.9353158,249.862887 L96.0691431,243.820357 L96.2074293,243.194981 L96.1728578,243.194981 L96,244.028122 L97.8661727,250.106089 L97.8661727,251.147689 L97.6933149,252.467929 L96.622288,260.594353 L96.622288,260.698583 L97.7278865,264.51894 L97.0717183,268.165582 L98.2810314,269.832558 L98.2810314,269.936788 L98.4884607,271.881015 L100.147204,273.582735 L99.9743463,274.590286 L101.840519,274.242855 L101.909662,275.909831 L101.840519,275.805602 L101.840519,276.048804 L101.771376,276.048804 L101.114516,275.492913 L101.252802,276.465722 L102.462116,277.298863 L102.289949,279.278528 L105.26172,282.612481 L105.26172,283.828491 L105.365435,283.828491 L109.995949,285.148037 L109.995949,285.321752 L110.168807,285.981177 L112.138695,286.815013 L113.140578,289.349874 L113.244293,289.349874 L115.767325,289.141415 L117.702641,288.968394 L119.015669,289.52359 L126.342073,292.510806 L136.363676,291.399025 L139.61202,294.212526 L140.26888,296.260982 L140.648475,296.538928 L142.203504,298.101675 L143.620938,298.101675 L144.726536,296.260982 L147.248877,296.434698 L151.119509,302.512666 L152.432536,304.631304 L152.536251,304.735533 L156.890885,306.055078 L156.925456,306.055078 L156.372311,301.817803 L156.476026,301.78306 L156.441454,301.644087 L161.728828,297.82373 L161.210255,296.747387 L161.31397,296.712643 L161.244827,296.608414 L162.109115,296.260982 L162.109115,297.164304 L162.178259,297.164304 L165.357459,296.260982 L167.465633,296.886359 L168.502088,296.260982 L169.815116,297.927959 L172.856721,297.476993 L173.96232,298.310134 L174.377178,298.066932 L173.30546,296.747387 L173.374603,296.643157 L173.340032,296.608414 L173.893177,295.74053 L171.439287,295.74053 L171.508431,295.601557 L171.473859,295.601557 L172.130719,294.385547 L173.133294,295.219383 L176.864948,294.108296 L177.314378,294.941437 L180.493578,294.385547 L182.32518,295.601557 L182.705467,296.608414 L185.677238,295.601557 L188.20027,298.101675 L189.029296,303.137348 L192.105473,308 L193.591359,307.33988 L194.178384,303.484779 L191.206613,293.413433 L191.241184,293.309204 L191.241184,293.274461 L192.174616,290.7396 L196.735988,286.363352 L201.919647,283.48106 L204.200678,280.876018 L202.369077,276.88264 L202.369077,274.937718 L201.262787,274.103882 L201.366502,273.999653 L201.297359,273.964909 L201.746789,273.374971 L202.403649,270.874158 L203.232675,270.214038 L203.163532,270.491984 L203.198103,270.45724 L202.783244,271.950501 L202.403649,273.374971 L204.166107,274.590286 L204.062392,274.590286 L204.027821,274.729259 L204.649417,275.007204 L205.409991,273.444457 L204.027821,270.45724 L204.200678,270.318268 L204.166107,270.214038 L204.23525,270.283525 L205.444563,271.707994 L206.411875,271.047874 L206.584733,270.943645 L207.345307,267.609691 L207.587308,266.498605 L210.005934,265.178365 L213.151255,264.796885 L213.461707,263.85882 L213.53085,263.85882 L214.18771,264.51894 L215.362451,264.345224 L215.293308,263.997793 L214.083995,262.330816 L214.153138,262.191844 L215.742739,258.302 L215.77731,258.302 L215.846453,258.093541 L218.334914,257.190914 L218.887367,255.906112 L218.956511,255.975598 L219.025654,255.836625 L219.025654,255.767139 L219.025654,255.836625 L219.578799,256.322335 L222.066568,255.280735 L223,254.446899 L223,253.440043 L221.514114,251.946782 L221.479543,251.946782 L221.479543,252.120497 L221.4104,252.051011 L220.96097,247.605277 L220.995541,247.605277 L220.96097,247.36277 L220.028229,246.528934 L218.749081,247.084824 L217.539768,246.320475 L215.017427,252.849409 L213.461707,253.717988 L212.701824,254.065419 L205.82485,254.065419 L203.12896,256.045084 L203.059817,256.218105 L202.956102,258.475716 L202.922222,258.684174 L196.424844,259.240065 L196.390272,259.274808 L196.908845,260.594353 L197.116275,260.594353 L196.908845,260.698583 L196.874274,260.941785 L190.654159,264.275738 L188.165698,264.657913 L186.679813,263.997793 L186.852671,263.997793 L186.887242,263.96305 L186.714384,263.85882 L186.887242,263.85882 L186.990957,263.685104 L189.029987,260.142692 L188.995416,260.107949 L187.958269,257.017198 L186.126668,258.406229 L186.230383,258.163027 L186.16124,258.19777 L186.057525,258.267257 L186.057525,258.19777 L186.16124,258.19777 L187.129243,255.871369 L186.472384,253.092611 L183.327755,252.051011 L182.670895,253.648501 L181.012152,254.204392 L180.217697,256.808739 L180.390555,262.469789 L180.355984,262.608761 L178.765692,264.275738 L177.936666,264.275738 L177.279806,262.608761 L177.003234,259.795261 L177.14152,259.344294 L178.489811,254.343365 L178.386096,254.308621 L176.900211,255.419708 L176.831068,255.419708 L176.900211,255.315478 L176.865639,255.280735 L179.007693,251.564607 L185.608095,251.078203 L185.26307,250.210319 L185.193927,250.106089 L184.744497,249.550199 L184.571639,249.445969 L183.327755,249.445969 Z M99.524916,250.384034 L99.2483436,250.384034 L97.9353158,250.106089 L99.524916,250.384034 Z M166.359343,242.534861 L166.705058,242.74332 L166.359343,242.534861 Z M196.943417,260.907042 L196.908845,260.837555 L197.081703,260.837555 L196.943417,260.907042 L196.943417,260.907042 Z" id="Fill-990" fill="#DFDFDF"></path>
                <path d="M161.355983,240.27866 L160.802001,241.427436 L100.36668,241.427436 L100.540016,241.636431 L101.093998,242.437579 L101.197999,242.54138 L101.024663,246.197399 L101.024663,246.267064 L100.989996,246.197399 L100.920662,246.092902 L100.747326,245.710441 L99.9853407,246.197399 L99.9160063,246.267064 L100.677991,245.118288 L100.747326,244.978958 L100.747326,244.874461 L99.5346672,244.039177 L96.173336,243.203197 L96.1386688,243.412192 L96,244.039177 L97.8713352,250.097246 L97.9406696,250.097246 L98.1486727,250.201744 L161.355983,240.27866 Z M98.1486727,250.201744 L99.2573296,250.480404 L99.5346672,250.480404 L98.1486727,250.201744 Z M97.8020008,251.142221 L97.6286648,252.708988 L96.5546751,260.85631 L96.5546751,260.960808 L97.663332,264.79099 L97.0053487,268.44701 L98.2180071,270.118273 L98.2180071,270.222771 L98.4260103,272.171998 L100.089342,273.878094 L99.9160063,274.888236 L101.787342,274.539911 L101.856676,276.211175 L101.787342,276.106677 L101.128665,275.653855 L101.024663,275.549357 L101.024663,275.653855 L101.05933,275.793185 L101.197999,276.768495 L102.410658,277.603778 L102.237322,279.588534 L105.218007,282.931062 L105.218007,284.150199 L105.322009,284.150199 L109.965333,285.473138 L109.965333,285.6473 L110.138669,286.308421 L112.114006,287.144401 L113.118661,289.685781 L113.222662,289.685781 L97.8020008,251.142221 Z M165.479992,242.437579 L163.053982,242.263416 L161.667987,240.174163 L161.63332,240.104498 L165.479992,242.437579 Z M165.479992,242.437579 L163.123316,242.158919 L161.87599,240.383158 L161.63332,240.104498 L165.479992,242.437579 Z M161.63332,240.104498 L161.563986,240 L161.355983,240.27866 L161.63332,240.104498 Z M166.381339,242.54138 L165.549326,242.437579 L165.479992,242.437579 L166.381339,242.54138 Z M168.251981,243.65602 L166.484647,242.54138 L166.381339,242.54138 L168.251981,243.65602 Z M173,244.595801 L169.673336,244.421638 L168.251981,243.65602 L173,244.595801 Z M166.381339,242.54138 L168.251981,243.65602 L166.381339,242.54138 Z M157.093998,306.503611 L157.024663,306.468778 L156.989996,306.433946 L152.623316,305.11031 L152.520008,305.00651 L151.202655,302.882423 L147.322009,296.788825 L144.791997,296.614663 L143.68334,298.460089 L142.261985,298.460089 L140.702655,296.893323 L140.322009,296.614663 L139.663332,294.560938 L136.406002,291.740202 L126.356676,292.854842 L119.010004,289.859943 L157.093998,306.503611 Z M113.222662,289.685781 L116.203348,296.893323 L119.634013,300.166185 L118.802001,301.837448 L118.732666,301.802616 L117.589342,301.454987 L117.520008,301.454987 L117.554675,301.524652 L118.802001,303.161083 L123.37599,305.66763 L123.826664,308.209707 L123.37599,309.04499 L127.950674,312.213355 L128.57399,313.711152 L129.614006,312.70101 L129.718007,312.596512 L128.020008,310.367929 L127.187995,310.367929 L125.247326,304.832347 L118.247326,295.570384 L117.969988,291.670537 L117.969988,291.566039 L120.014659,292.193025 L121.712658,293.06314 L123.826664,298.564586 L125.906002,301.106662 L127.187995,301.454987 L127.187995,302.673428 L130.271989,305.284473 L129.718007,306.712606 L132.212658,308.000712 L138.104002,314.755431 L139.212658,317.645135 L138.104002,319.595059 L139.767334,321.962973 L143.024663,324.399855 L146.177991,324.957175 L148.430666,326.628438 L154.841323,329.449175 L158.930666,330.354123 L161.286648,329.170514 L163.227318,329.449175 L167.55933,332.965167 L167.593998,333 L113.222662,289.685781 Z" id="Stroke-1065" stroke="#CFCFCF" stroke-width="0.05" stroke-linecap="round" stroke-linejoin="round"></path>
                <path d="M115.749381,289.593964 L113.222272,289.801678 L115.749381,289.593964 Z M174.246172,325.203036 L176.11536,323.992064 L174.246172,325.203036 Z M174.80021,329.597568 L174.904092,329.597568 L175.734458,328.732786 L176.11536,324.199086 L176.11536,323.992064 L174.80021,329.597568 Z M171.442736,328.732786 L171.373481,328.767405 L171.200344,328.802024 L170.750187,328.905881 L171.442736,328.732786 Z M170.750187,328.905881 L171.200344,328.767405 L171.373481,328.732786 L170.750187,328.905881 Z M174.80021,329.597568 L174.765583,329.562949 L174.246172,329.113595 L174.246172,325.203036 L174.80021,329.597568 Z M187.433678,331.812489 L187.364423,331.708633 L183.557484,329.770663 L183.453602,329.770663 L176.565516,330.601518 L176.11536,330.324566 L176.11536,330.151471 L176.011477,330.220709 L187.433678,331.812489 Z M176.011477,330.220709 L175.942222,330.324566 L174.904092,331.639395 L176.011477,330.220709 Z M176.011477,330.220709 L174.80021,329.597568 L176.011477,330.220709 Z M171.373481,328.732786 L170.611678,327.556433 L171.373481,328.732786 Z M171.442736,328.732786 L170.611678,327.556433 L171.442736,328.732786 Z M170.611678,327.556433 L169.781312,326.448626 L169.781312,326.414007 L171.096462,325.203036 L174.246172,325.203036 L170.611678,327.556433 Z M167.531223,332.850366 L167.531223,332.747202 L168.188451,331.500919 L169.192646,329.389854 L169.227274,329.321308 L169.608175,329.113595 L170.750187,328.905881 L167.531223,332.850366 Z M167.531223,332.850366 L167.531223,332.919604 L167.56585,332.954223 L172.376983,334.615241 L167.531223,332.850366 Z M172.550121,334.546696 L172.480866,334.615241 L172.376983,334.615241 L172.550121,334.546696 Z M172.376983,334.615241 L172.446238,334.684479 L173.138787,335.446096 L177.395882,336 L177.603646,335.549953 L177.672901,335.446096 L172.376983,334.615241 Z M173.761388,333.127318 L172.82714,334.235125 L172.550121,334.546696 L173.761388,333.127318 Z M174.904092,331.639395 L172.550121,334.546003 L174.904092,331.639395 Z M174.904092,331.639395 L173.761388,333.127318 L174.904092,331.639395 Z M27.2770193,320.358457 L27,320.946287 L28.03813,322.884257 L29.7002461,321.742524 L29.8726906,321.604048 L27.5540387,319.735316 L27.3116468,320.289219 L27.2770193,320.358457 Z M391.515216,260.5258 L391.515216,260.595038 L390.96187,265.543473 L390.130812,264.678692 L389.853793,264.40174 L389.853793,262.186818 L391.445961,260.629657 L391.515216,260.5258 Z M390.927243,265.751187 L388.642526,266.755137 L389.196564,271.772811 L389.819165,272.499117 L390.02693,272.776069 L391.722981,271.772811 L392,267.100635 L390.96187,265.716568 L390.927243,265.751187 Z M377.565907,262.567627 L377.669789,262.567627 L377.462717,260.595038 L379.608232,259.037877 L383.519745,260.595038 L385.008032,260.595038 L387.535141,258 L377.565907,262.567627 Z M354.790761,277.344388 L354.860016,277.379007 L358.701582,280.320234 L360.813162,278.728454 L365.83206,278.451502 L365.866687,278.451502 L366.62849,277.724504 L371.127977,273.260734 L371.23186,273.156877 L371.23186,273.05302 L370.020592,270.734242 L372.92791,266.547424 L377.254953,264.124788 L377.565907,263.951693 L377.565907,262.567627 L354.790761,277.344388 Z M378.223828,270.457982 L377.565907,271.392002 L375.800601,270.561147 L377.116443,269.730984 L378.223828,270.457982 Z M389.74991,278.070694 L388.642526,278.278408 L384.453993,277.724504 L382.688687,278.728454 L382.308478,278.728454 L380.43929,278.070694 L377.116443,278.278408 L372.92791,279.109263 L366.039824,282.639013 L389.74991,278.070694 Z" id="Stroke-1067" stroke="#CFCFCF" stroke-width="0.05" stroke-linecap="round" stroke-linejoin="round"></path>
            </g>
            <g id="矩形" transform="translate(44.000000, 345.000000)">
                <mask id="mask-2" fill="white">
                    <use xlink:href="#path-1"></use>
                </mask>
                <g id="蒙版">
                    <use fill="black" fill-opacity="1" filter="url(#filter-3)" xlink:href="#path-1"></use>
                    <use fill="#FFFFFF" fill-rule="evenodd" xlink:href="#path-1"></use>
                </g>
                <rect fill="#F3F3F3" opacity="0.600000024" mask="url(#mask-2)" x="-4" y="-2" width="272" height="100"></rect>
                <g id="编组-34" mask="url(#mask-2)">
                    <g transform="translate(66.000000, 27.000000)">
                        <path d="M123.674074,33.4796594 C128.600309,33.4796594 131.455556,30.4726427 132.637037,28.7199622 L128.966975,26.2824819 C127.748148,28.0656733 126.077778,29.2488174 123.674074,29.2488174 C121.27037,29.2488174 119.555864,28.1504257 118.459259,25.9943236 L132.840741,20.0514822 L132.351852,18.8344371 C131.455556,16.4342479 128.722531,12 123.144444,12 C117.603704,12 113,16.3562756 113,22.7364396 C113,28.7606433 117.562963,33.4796594 123.674074,33.4796594 L123.674074,33.4796594 Z M117.685185,22.4143803 C117.562963,18.2682908 120.903704,16.1494797 123.307407,16.1494797 C125.181481,16.1494797 126.77037,17.0851466 127.303395,18.4276254 L117.685185,22.4143803 Z" id="形状" fill="#F6001A"></path>
                        <path d="M17.7895679,33.4796594 C22.7599383,33.4796594 26.5053704,31.8558026 29.4373457,28.8047146 C32.4555556,25.7875276 33.3925926,21.5634658 33.3925926,18.1462472 C33.3925926,17.0851466 33.3111111,16.1121886 33.1481481,15.295175 L17.7895679,15.295175 L17.7895679,19.8514664 L28.7074074,19.8514664 C28.3814815,22.4143803 27.5225309,24.2857143 26.2242593,25.5875118 C24.6326543,27.1706875 22.1501852,28.923368 17.7895679,28.923368 C11.0683642,28.923368 5.81179012,23.512772 5.81179012,16.8003784 C5.81179012,10.0879849 11.0683642,4.67399874 17.7895679,4.67399874 C21.4127778,4.67399874 24.0653395,6.1012299 26.0175,7.93188269 L29.237037,4.71807001 C26.5053704,2.11786503 22.8821605,0.121097446 17.7895679,0.121097446 C8.58046296,0.121097446 0.840740741,7.6030432 0.840740741,16.8003784 C0.840740741,25.9943236 8.58046296,33.4796594 17.7895679,33.4796594 Z" id="路径" fill="#3982F6"></path>
                        <path d="M45.8219136,12 C51.7666667,12 56.6148148,16.5156102 56.6148148,22.7364396 C56.6148148,28.923368 51.7666667,33.4796594 45.8219136,33.4796594 C39.8669753,33.4796594 35.0188272,28.923368 35.0188272,22.7364396 C35.0188272,16.5156102 39.8669753,12 45.8219136,12 Z M45.8219136,16.2342321 C42.5592593,16.2342321 39.7447531,18.8751183 39.7447531,22.7364396 C39.7447531,26.56386 42.5592593,29.2488174 45.8219136,29.2488174 C49.0777778,29.2488174 51.8888889,26.56386 51.8888889,22.7364396 C51.8888889,18.8751183 49.0777778,16.2342321 45.8219136,16.2342321 Z" id="形状结合" fill="#F6001A"></path>
                        <path d="M92.429321,12 C94.9891975,12 97.0262346,13.1390728 98.0888889,14.4001892 L98.0888889,14.4001892 L98.2518519,14.4001892 L98.2518519,12.6508988 L102.736728,12.6508988 L102.736728,31.9337748 C102.736728,39.8699937 98.0447531,43.1210974 92.5074074,43.1210974 C87.2925926,43.1210974 84.1589506,39.6259067 82.9740741,36.7748344 L82.9740741,36.7748344 L87.0854938,35.0628351 C87.8222222,36.8189057 89.6182099,38.8902554 92.5074074,38.8902554 C96.0518519,38.8902554 98.2518519,36.6968622 98.2518519,32.5846736 L98.2518519,32.5846736 L98.2518519,31.038789 L98.0888889,31.038789 C97.0262346,32.3405866 94.9891975,33.4796594 92.429321,33.4796594 C87.0481481,33.4796594 82.1219136,28.8047146 82.1219136,22.7805109 C82.1219136,16.7190161 87.0481481,12 92.429321,12 Z M92.8299383,16.2342321 C89.5740741,16.2342321 86.8410494,18.9971618 86.8410494,22.7805109 C86.8410494,26.5265689 89.5740741,29.2488174 92.8299383,29.2488174 C96.0518519,29.2488174 98.5777778,26.5265689 98.5777778,22.7805109 C98.5777778,18.9971618 96.0518519,16.2342321 92.8299383,16.2342321 Z" id="形状结合" fill="#3982F6"></path>
                        <polygon id="路径" fill="#00C34B" points="110.718519 1.26017029 105.992593 1.26017029 105.992593 32.8287606 110.718519 32.8287606"></polygon>
                        <path d="M69.3666667,12 C75.3148148,12 80.162963,16.5156102 80.162963,22.7364396 C80.162963,28.923368 75.3148148,33.4796594 69.3666667,33.4796594 C63.4151235,33.4796594 58.5669753,28.923368 58.5669753,22.7364396 C58.5669753,16.5156102 63.4151235,12 69.3666667,12 Z M69.3666667,16.2342321 C66.1074074,16.2342321 63.2929012,18.8751183 63.2929012,22.7364396 C63.2929012,26.56386 66.1074074,29.2488174 69.3666667,29.2488174 C72.6259259,29.2488174 75.437037,26.56386 75.437037,22.7364396 C75.437037,18.8751183 72.6259259,16.2342321 69.3666667,16.2342321 Z" id="形状结合" fill="#FFC000"></path>
                    </g>
                </g>
            </g>
        </g>
    </g>
</svg>