<?xml version="1.0" encoding="UTF-8"?>
<svg width="162px" height="38px" viewBox="0 0 162 38" version="1.1" xmlns="http://www.w3.org/2000/svg" xmlns:xlink="http://www.w3.org/1999/xlink">
    <title>编组 4</title>
    <defs>
        <circle id="path-1" cx="18" cy="18" r="18"></circle>
    </defs>
    <g id="页面-1" stroke="none" stroke-width="1" fill="none" fill-rule="evenodd">
        <g id="桌面端-HD备份-2" transform="translate(-30.000000, -16.000000)">
            <g id="编组-41" transform="translate(-122.000000, -7.000000)">
                <g id="编组-4" transform="translate(152.000000, 23.000000)">
                    <g id="编组-3">
                        <circle id="蒙版" fill="#FE405B" cx="21" cy="19.2" r="18"></circle>
                        <g id="编组-2">
                            <mask id="mask-2" fill="white">
                                <use xlink:href="#path-1"></use>
                            </mask>
                            <circle stroke="#000000" stroke-width="1.2" cx="18" cy="18" r="17.4"></circle>
                            <g mask="url(#mask-2)">
                                <g transform="translate(-33.600000, 6.000000)">
                                    <path d="M60.9445312,24.2517869 C61.3996094,20.8322557 61.3996094,15.3738573 60.9445312,7.87659163 C59.9171875,2.39143538 57.0853516,-0.228877116 52.4490234,0.0156541344 C47.8126953,0.260185384 45.5007812,1.64514632 45.5132812,4.17053695 L38.1667969,9.46624007 L45.5132812,9.46624007 L45.5132812,13.1107713 L1.0828125,44.1478807 C5.29609375,44.7506151 7.80898438,44.7506151 8.62148438,44.1478807 C9.43398438,43.5451463 6.56015625,45.5810838 8.95283847e-14,50.2556932 C2.88984375,52.8170213 5.76367188,53.248076 8.62148438,51.5488573 C11.4792969,49.8496385 15.7636719,46.9551073 21.4746094,42.8652635 L18.9082031,48.0332323 L26.3712891,44.1478807 C36.1525391,46.7017869 43.7517578,46.2742479 49.1689453,42.8652635 C57.2947266,37.7517869 60.2619141,29.3810838 60.9445312,24.2517869 Z" id="路径-3" fill="#000000"></path>
                                    <path d="M54.1623044,5.99967718 C54.161756,7.15900854 53.2217642,8.09866195 52.0623047,8.09866195 C50.9025067,8.09866195 49.9623047,7.15845992 49.9623047,5.99866195 L49.962,5.99966195 Z" id="形状结合" fill="#FFFFFF"></path>
                                </g>
                            </g>
                        </g>
                    </g>
                    <path d="M57.2592773,28.8307617 C58.4842773,28.8307617 59.592041,28.6226074 60.5825684,28.2062988 C61.5730957,27.7899902 62.439209,27.2157715 63.1809082,26.4836426 C63.9226074,25.7515137 64.5351074,24.8949707 65.0184082,23.9140137 C65.501709,22.9330566 65.853418,21.8731445 66.0735352,20.7342773 L66.0735352,20.7342773 L62.6282227,20.7342773 C62.4942383,21.4041992 62.2789063,22.057373 61.9822266,22.6937988 C61.6855469,23.3302246 61.3099121,23.8972656 60.8553223,24.3949219 C60.4007324,24.8925781 59.8719727,25.2921387 59.269043,25.5936035 C58.6661133,25.8950684 57.9961914,26.0458008 57.2592773,26.0458008 C56.5415039,26.0458008 55.8309082,25.885498 55.1274902,25.5648926 C54.4240723,25.2442871 53.7948242,24.7562012 53.2397461,24.1006348 C52.684668,23.4450684 52.2372559,22.6148438 51.8975098,21.6099609 C51.5577637,20.6050781 51.3878906,19.4135742 51.3878906,18.0354492 C51.3878906,17.0209961 51.5314453,16.0639648 51.8185547,15.1643555 C52.1056641,14.2647461 52.5076172,13.4775879 53.0244141,12.8028809 C53.5412109,12.1281738 54.1561035,11.5946289 54.8690918,11.2022461 C55.5820801,10.8098633 56.3692383,10.6136719 57.2305664,10.6136719 C58.5704102,10.6136719 59.6853516,10.9653809 60.5753906,11.6687988 C61.4654297,12.3722168 62.1640625,13.4369141 62.6712891,14.8628906 L62.6712891,14.8628906 L66.1883789,14.8628906 C65.8916992,13.8388672 65.4921387,12.8961914 64.9896973,12.0348633 C64.4872559,11.1735352 63.8675781,10.4294434 63.1306641,9.80258789 C62.39375,9.17573242 61.537207,8.68525391 60.5610352,8.33115234 C59.5848633,7.97705078 58.474707,7.8 57.2305664,7.8 C55.7663086,7.8 54.4623535,8.08232422 53.3187012,8.64697266 C52.1750488,9.21162109 51.2084473,9.96767578 50.4188965,10.9151367 C49.6293457,11.8625977 49.0288086,12.9512207 48.6172852,14.1810059 C48.2057617,15.410791 48,16.6908203 48,18.0210938 C48,19.7341797 48.2177246,21.2606445 48.6531738,22.6004883 C49.088623,23.940332 49.7083008,25.0720215 50.512207,25.9955566 C51.3161133,26.9190918 52.2875,27.6225098 53.4263672,28.1058105 C54.5652344,28.5891113 55.8428711,28.8307617 57.2592773,28.8307617 Z M71.1884766,28.3283203 L71.1884766,19.6432617 C71.1884766,19.2317383 71.2506836,18.8345703 71.3750977,18.4517578 C71.4995117,18.0689453 71.6765625,17.7315918 71.90625,17.4396973 C72.1359375,17.1478027 72.4182617,16.9133301 72.7532227,16.7362793 C73.0881836,16.5592285 73.4662109,16.4707031 73.8873047,16.4707031 C73.9255859,16.4707031 73.9901855,16.4730957 74.0811035,16.4778809 C74.1720215,16.482666 74.3012207,16.5018066 74.4687012,16.5353027 C74.6361816,16.5687988 74.8467285,16.6238281 75.1003418,16.7003906 C75.3539551,16.7769531 75.6578125,16.8822266 76.0119141,17.0162109 L76.0119141,17.0162109 L76.0119141,14.0876953 C75.4759766,13.7910156 75.0166016,13.6067871 74.6337891,13.5350098 C74.2509766,13.4632324 73.9734375,13.4273438 73.8011719,13.4273438 C73.2365234,13.4273438 72.717334,13.602002 72.2436035,13.9513184 C71.769873,14.3006348 71.3128906,14.8198242 70.8726563,15.5088867 L70.8726563,15.5088867 L70.312793,13.7144531 L67.8005859,13.7144531 L67.8005859,28.3283203 L71.1884766,28.3283203 Z M82.5193359,28.6154297 C83.6103516,28.6154297 84.5841309,28.4168457 85.4406738,28.0196777 C86.2972168,27.6225098 87.0197754,27.0793945 87.6083496,26.390332 C88.1969238,25.7012695 88.6443359,24.8973633 88.9505859,23.9786133 C89.2568359,23.0598633 89.4099609,22.0836914 89.4099609,21.0500977 C89.4099609,20.0069336 89.2544434,19.023584 88.9434082,18.1000488 C88.632373,17.1765137 88.1825684,16.3678223 87.5939941,15.6739746 C87.0054199,14.980127 86.2828613,14.4322266 85.4263184,14.0302734 C84.5697754,13.6283203 83.5959961,13.4273438 82.5049805,13.4273438 C81.4139648,13.4273438 80.4401855,13.6283203 79.5836426,14.0302734 C78.7270996,14.4322266 78.0069336,14.980127 77.4231445,15.6739746 C76.8393555,16.3678223 76.3943359,17.1765137 76.0880859,18.1000488 C75.7818359,19.023584 75.6287109,20.0069336 75.6287109,21.0500977 C75.6287109,22.0836914 75.7818359,23.0598633 76.0880859,23.9786133 C76.3943359,24.8973633 76.841748,25.7012695 77.4303223,26.390332 C78.0188965,27.0793945 78.7414551,27.6225098 79.597998,28.0196777 C80.454541,28.4168457 81.4283203,28.6154297 82.5193359,28.6154297 Z M82.5049805,25.7874023 C81.969043,25.7874023 81.4857422,25.6629883 81.0550781,25.4141602 C80.6244141,25.165332 80.2583496,24.8255859 79.9568848,24.3949219 C79.6554199,23.9642578 79.4233398,23.4618164 79.2606445,22.8875977 C79.0979492,22.3133789 79.0166016,21.7008789 79.0166016,21.0500977 C79.0166016,20.3993164 79.0979492,19.7844238 79.2606445,19.2054199 C79.4233398,18.626416 79.6554199,18.121582 79.9568848,17.690918 C80.2583496,17.2602539 80.6244141,16.9181152 81.0550781,16.664502 C81.4857422,16.4108887 81.969043,16.284082 82.5049805,16.284082 C83.040918,16.284082 83.5266113,16.4108887 83.9620605,16.664502 C84.3975098,16.9181152 84.7683594,17.2602539 85.0746094,17.690918 C85.3808594,18.121582 85.615332,18.626416 85.7780273,19.2054199 C85.9407227,19.7844238 86.0220703,20.3993164 86.0220703,21.0500977 C86.0220703,21.7008789 85.9407227,22.3133789 85.7780273,22.8875977 C85.615332,23.4618164 85.3808594,23.9642578 85.0746094,24.3949219 C84.7683594,24.8255859 84.3975098,25.165332 83.9620605,25.4141602 C83.5266113,25.6629883 83.040918,25.7874023 82.5049805,25.7874023 Z M96.8791992,28.3283203 L99.4488281,18.9829102 L102.032813,28.3283203 L105.262793,28.3283203 L109.425879,13.7144531 L106.009277,13.7144531 L103.540137,22.744043 L101.128418,13.7144531 L97.7835938,13.7144531 L95.2857422,22.744043 L92.9170898,13.7144531 L89.4861328,13.7144531 L93.6492188,28.3283203 L96.8791992,28.3283203 Z M119.665723,28.3283203 L126.398438,8.30244141 L122.80957,8.30244141 L117.871289,23.1459961 L112.86123,8.30244141 L109.258008,8.30244141 L116.076855,28.3283203 L119.665723,28.3283203 Z M131.972754,28.3283203 L131.972754,20.2749023 L136.509082,20.2749023 C137.533105,20.2749023 138.442285,20.1050293 139.236621,19.7652832 C140.030957,19.4255371 140.700879,18.9757324 141.246387,18.4158691 C141.791895,17.8560059 142.205811,17.2147949 142.488135,16.4922363 C142.770459,15.7696777 142.911621,15.0303711 142.911621,14.2743164 C142.911621,13.556543 142.770459,12.8435547 142.488135,12.1353516 C142.205811,11.4271484 141.794287,10.7883301 141.253564,10.2188965 C140.712842,9.64946289 140.045313,9.18769531 139.250977,8.83359375 C138.456641,8.47949219 137.542676,8.30244141 136.509082,8.30244141 L136.509082,8.30244141 L128.584863,8.30244141 L128.584863,28.3283203 L131.972754,28.3283203 Z M135.791309,17.4325195 L131.972754,17.4325195 L131.972754,11.1591797 L135.791309,11.1591797 C136.394238,11.1591797 136.927783,11.2357422 137.391943,11.3888672 C137.856104,11.5419922 138.246094,11.7549316 138.561914,12.0276855 C138.877734,12.3004395 139.116992,12.6258301 139.279688,13.0038574 C139.442383,13.3818848 139.52373,13.7910156 139.52373,14.23125 C139.52373,14.6810547 139.459131,15.0997559 139.329932,15.4873535 C139.200732,15.8749512 138.990186,16.2123047 138.698291,16.4994141 C138.406396,16.7865234 138.023584,17.0138184 137.549854,17.1812988 C137.076123,17.3487793 136.489941,17.4325195 135.791309,17.4325195 L135.791309,17.4325195 Z M149.275488,28.3283203 L149.275488,12.9536133 L157.91748,28.3283203 L161.736035,28.3283203 L161.736035,8.30244141 L158.348145,8.30244141 L158.348145,23.5335938 L149.749219,8.30244141 L145.887598,8.30244141 L145.887598,28.3283203 L149.275488,28.3283203 Z" id="CrowVPN" fill="#000000" fill-rule="nonzero"></path>
                </g>
            </g>
        </g>
    </g>
</svg>