<?xml version="1.0" encoding="UTF-8"?>
<svg width="59px" height="56px" viewBox="0 0 59 56" version="1.1" xmlns="http://www.w3.org/2000/svg" xmlns:xlink="http://www.w3.org/1999/xlink">
    <title>编组 4</title>
    <defs>
        <circle id="path-1" cx="27" cy="27" r="27"></circle>
    </defs>
    <g id="页面-1" stroke="none" stroke-width="1" fill="none" fill-rule="evenodd">
        <g id="桌面端-HD备份-2" transform="translate(-36.000000, -2505.000000)">
            <g id="编组-41" transform="translate(-122.000000, -7.000000)">
                <g id="编组-39" transform="translate(1.000000, 2444.000000)">
                    <g id="编组-3" transform="translate(157.000000, 68.000000)">
                        <circle id="蒙版" fill="#FE405B" cx="31.5" cy="28.8" r="27"></circle>
                        <g id="编组-2">
                            <mask id="mask-2" fill="white">
                                <use xlink:href="#path-1"></use>
                            </mask>
                            <circle stroke="#000000" stroke-width="1.8" cx="27" cy="27" r="26.1"></circle>
                            <g mask="url(#mask-2)">
                                <g transform="translate(-50.400000, 9.000000)">
                                    <path d="M91.4167969,36.3776804 C92.0994141,31.2483835 92.0994141,23.0607859 91.4167969,11.8148875 C89.8757812,3.58715308 85.6280273,-0.343315673 78.6735352,0.0234812016 C71.719043,0.390278077 68.2511719,2.46771948 68.2699219,6.25580542 L57.2501953,14.1993601 L68.2699219,14.1993601 L68.2699219,19.666157 L1.62421875,66.221821 C7.94414063,67.1259226 11.7134766,67.1259226 12.9322266,66.221821 C14.1509766,65.3177195 9.84023438,68.3716257 1.34292577e-13,75.3835398 C4.33476563,79.225532 8.64550781,79.872114 12.9322266,77.3232859 C17.2189453,74.7744578 23.6455078,70.4326609 32.2119141,64.2978953 L28.3623047,72.0498484 L39.5569336,66.221821 C54.2288086,70.0526804 65.6276367,69.4113718 73.753418,64.2978953 C85.9420898,56.6276804 90.3928711,44.0716257 91.4167969,36.3776804 Z" id="路径-3" fill="#000000"></path>
                                    <path d="M81.2434564,9.00001489 C81.2423641,10.7387825 79.83248,12.1479929 78.093457,12.1479929 C76.3537601,12.1479929 74.943457,10.7376899 74.943457,8.99799292 L74.943,8.99999292 Z" id="形状结合" fill="#FFFFFF"></path>
                                </g>
                            </g>
                        </g>
                    </g>
                </g>
            </g>
        </g>
    </g>
</svg>