<?xml version="1.0" encoding="UTF-8"?>
<svg width="263px" height="98px" viewBox="0 0 263 98" version="1.1" xmlns="http://www.w3.org/2000/svg" xmlns:xlink="http://www.w3.org/1999/xlink">
    <title>medium</title>
    <defs>
        <rect id="path-1" x="0" y="0" width="263" height="237"></rect>
        <filter x="-3.4%" y="-2.5%" width="106.8%" height="107.6%" filterUnits="objectBoundingBox" id="filter-3">
            <feOffset dx="0" dy="3" in="SourceAlpha" result="shadowOffsetOuter1"></feOffset>
            <feGaussianBlur stdDeviation="2.5" in="shadowOffsetOuter1" result="shadowBlurOuter1"></feGaussianBlur>
            <feColorMatrix values="0 0 0 0 0   0 0 0 0 0   0 0 0 0 0  0 0 0 0.123630764 0" type="matrix" in="shadowBlurOuter1"></feColorMatrix>
        </filter>
    </defs>
    <g id="页面-1" stroke="none" stroke-width="1" fill="none" fill-rule="evenodd">
        <g id="桌面端-HD备份-3" transform="translate(-44.000000, -859.000000)">
            <g id="矩形" transform="translate(44.000000, 859.000000)">
                <mask id="mask-2" fill="white">
                    <use xlink:href="#path-1"></use>
                </mask>
                <g id="蒙版">
                    <use fill="black" fill-opacity="1" filter="url(#filter-3)" xlink:href="#path-1"></use>
                    <use fill="#FFFFFF" fill-rule="evenodd" xlink:href="#path-1"></use>
                </g>
                <rect fill="#F8F8F8" mask="url(#mask-2)" x="-4" y="-2" width="272" height="100"></rect>
                <g id="medium-seeklogo.com" mask="url(#mask-2)" fill="#000000" fill-rule="nonzero">
                    <g transform="translate(72.000000, 36.000000)" id="形状">
                        <path d="M60.6,20.806 C60.6,21.218 60.6,21.311 60.88,21.564 L62.454,23.101 L62.454,23.166 L55.475,23.166 L55.475,20.216 C54.7725566,22.160391 52.9152076,23.4461245 50.848,23.419 C47.26,23.419 44.656,20.609 44.656,15.438 C44.656,10.595 47.466,7.363 51.41,7.363 C53.1579431,7.25302548 54.7845324,8.25961797 55.466,9.873 L55.466,3.363 C55.5176904,3.06138016 55.3941128,2.75650392 55.147,2.576 L53.648,1.133 L53.648,1.068 L60.599,0.253 L60.599,20.806 L60.6,20.806 Z M55.475,19.869 L55.475,10.155 C54.9692705,9.5264404 54.2016414,9.16661427 53.395,9.18 C51.7,9.18 50.061,10.717 50.061,15.279 C50.061,19.55 51.475,21.059 53.236,21.059 C54.1294052,21.041059 54.961017,20.5992652 55.476,19.869 L55.475,19.869 Z M65.227,23.166 L65.227,10.051 C65.2714563,9.75841779 65.1658723,9.46308306 64.946,9.265 L63.4,7.672 L63.4,7.607 L70.38,7.607 L70.38,20.909 C70.38,21.321 70.38,21.414 70.66,21.667 L72.196,23.11 L72.196,23.176 L65.226,23.166 L65.227,23.166 Z M64.974,2.81 C64.974,1.25807985 66.2320799,-7.10542736e-15 67.784,-7.10542736e-15 C69.3359201,-7.10542736e-15 70.594,1.25807985 70.594,2.81 C70.594,4.36192015 69.3359201,5.62 67.784,5.62 C66.2320799,5.62 64.974,4.36192015 64.974,2.81 Z M89.208,20.777 C89.208,21.19 89.208,21.311 89.489,21.564 L91.063,23.101 L91.063,23.166 L84.046,23.166 L84.046,19.803 C83.4072509,21.929286 81.4610144,23.3939252 79.241,23.419 C76.131,23.419 74.463,21.152 74.463,16.862 C74.463,14.792 74.463,12.525 74.529,9.977 C74.5809277,9.69137963 74.4732454,9.40013925 74.248,9.217 L72.702,7.672 L72.702,7.607 L79.625,7.607 L79.625,16.159 C79.625,18.969 80.037,20.843 81.798,20.843 C82.7439433,20.7838378 83.5963254,20.251804 84.065,19.428 L84.065,10.061 C84.1100555,9.76826252 84.0048276,9.47249697 83.785,9.274 L82.229,7.672 L82.229,7.607 L89.208,7.607 L89.208,20.777 L89.208,20.777 Z M112.964,23.167 C112.964,22.66 113.058,16.215 113.058,14.735 C113.058,11.925 112.618,9.985 110.641,9.985 C109.646418,10.0160239 108.725494,10.5169292 108.159,11.335 C108.357,12.211 108.451,13.107 108.439,14.005 C108.439,15.953 108.374,18.435 108.346,20.918 C108.29446,21.203294 108.402104,21.4940494 108.627,21.677 L110.201,23.119 L110.201,23.185 L103.156,23.185 C103.156,22.717 103.25,16.235 103.25,14.754 C103.25,11.897 102.81,10.004 100.861,10.004 C99.9004073,10.0385893 99.0241423,10.5617833 98.538,11.391 L98.538,20.946 C98.538,21.358 98.538,21.452 98.819,21.705 L100.356,23.147 L100.356,23.213 L93.386,23.213 L93.386,10.098 C93.4308094,9.80508791 93.3251947,9.50929182 93.105,9.311 L91.559,7.672 L91.559,7.607 L98.539,7.607 L98.539,10.941 C99.1862212,8.73956502 101.248287,7.26083016 103.541,7.354 C105.864,7.354 107.437,8.646 108.103,11.101 C108.841539,8.83773517 110.967543,7.31892975 113.348,7.354 C116.458,7.354 118.22,9.649 118.22,13.986 C118.22,16.056 118.154,18.416 118.126,20.899 C118.071344,21.1927573 118.196272,21.4909333 118.444,21.658 L119.981,23.101 L119.981,23.166 L112.964,23.166 L112.964,23.167 Z M25.293,21.124 L27.363,23.101 L27.363,23.166 L16.862,23.166 L16.862,23.101 L18.969,21.124 C19.1938959,20.9410494 19.3015405,20.650294 19.25,20.365 L19.25,7.728 C19.25,7.194 19.25,6.473 19.344,5.855 L12.262,23.419 L12.178,23.419 L4.843,7.26 C4.683,6.858 4.637,6.83 4.533,6.558 L4.533,17.153 C4.446,17.863 4.567,18.582 4.881,19.223 L7.831,23.102 L7.831,23.167 L0,23.167 L0,23.102 L2.95,19.214 C3.26168118,18.5750933 3.3821773,17.8597561 3.297,17.154 L3.297,5.444 C3.34504374,4.86741974 3.17081494,4.29428926 2.81,3.842 L0.721,1.134 L0.721,1.069 L8.215,1.069 L14.492,14.755 L20.019,1.069 L27.354,1.069 L27.354,1.134 L25.293,3.43 C25.0462464,3.61032983 24.9227131,3.91470969 24.974,4.216 L24.974,20.366 C24.919552,20.6599668 25.0448937,20.9581937 25.293,21.125 L25.293,21.124 Z M33.508,14.792 L33.508,14.857 C33.508,18.867 35.578,20.477 38.005,20.477 C40.030644,20.5461675 41.9053531,19.4104321 42.782,17.583 L42.848,17.583 C42.004,21.546 39.55,23.419 35.878,23.419 C31.916,23.419 28.178,21.03 28.178,15.494 C28.178,9.677 31.925,7.354 36.065,7.354 C39.4,7.354 42.951,8.927 42.951,13.986 L42.951,14.792 L33.508,14.792 L33.508,14.792 Z M33.508,13.986 L38.126,13.986 L38.126,13.171 C38.126,9.049 37.274,7.953 35.99,7.953 C34.435,7.953 33.49,9.593 33.49,13.986 L33.508,13.986 Z"></path>
                    </g>
                </g>
            </g>
        </g>
    </g>
</svg>