<?xml version="1.0" encoding="UTF-8"?>
<svg width="263px" height="98px" viewBox="0 0 263 98" version="1.1" xmlns="http://www.w3.org/2000/svg" xmlns:xlink="http://www.w3.org/1999/xlink">
    <title>netflix</title>
    <defs>
        <rect id="path-1" x="0" y="0" width="263" height="237"></rect>
        <filter x="-3.4%" y="-2.5%" width="106.8%" height="107.6%" filterUnits="objectBoundingBox" id="filter-3">
            <feOffset dx="0" dy="3" in="SourceAlpha" result="shadowOffsetOuter1"></feOffset>
            <feGaussianBlur stdDeviation="2.5" in="shadowOffsetOuter1" result="shadowBlurOuter1"></feGaussianBlur>
            <feColorMatrix values="0 0 0 0 0   0 0 0 0 0   0 0 0 0 0  0 0 0 0.123630764 0" type="matrix" in="shadowBlurOuter1"></feColorMatrix>
        </filter>
    </defs>
    <g id="页面-1" stroke="none" stroke-width="1" fill="none" fill-rule="evenodd">
        <g id="桌面端-HD备份-3" transform="translate(-44.000000, -602.000000)">
            <g id="矩形" transform="translate(44.000000, 602.000000)">
                <mask id="mask-2" fill="white">
                    <use xlink:href="#path-1"></use>
                </mask>
                <g id="蒙版">
                    <use fill="black" fill-opacity="1" filter="url(#filter-3)" xlink:href="#path-1"></use>
                    <use fill="#FFFFFF" fill-rule="evenodd" xlink:href="#path-1"></use>
                </g>
                <rect fill="#F8F8F8" mask="url(#mask-2)" x="-4" y="-2" width="272" height="100"></rect>
                <g id="Netflix" mask="url(#mask-2)" fill="#B81D24" fill-rule="nonzero">
                    <g transform="translate(57.000000, 28.000000)">
                        <path d="M122,36.5382704 C124.088479,36.7321074 126.197235,36.945328 128.285714,37.1585487 L132.888479,26.2649105 L137.268203,38.1471173 C139.518894,38.4184891 141.769585,38.6898608 144,39 L136.315207,18.1431412 L144,0 L137.491244,0 L137.430415,0.0969184891 L133.273733,9.90506958 L129.623963,0.0193836978 L123.196313,0.0193836978 L129.826728,18.026839 L122,36.5382704 Z" id="path3015"></path>
                        <path d="M118,36 L118,0 L112,0 L112,35.4782609 C114.006309,35.6521739 116.012618,35.8067633 118,36" id="path3019"></path>
                        <path d="M73.1481481,34.9801023 C74.7407407,34.9801023 76.3148148,35 77.8888889,35 L77.8888889,21.3899943 L84.9444444,21.3899943 L84.9444444,15.5997726 L77.8888889,15.5997726 L77.8888889,5.81011939 L86,5.81011939 L86,0 L72,0 L72,34.9801023 C72.3888889,35 72.7592593,34.9801023 73.1481481,34.9801023" id="path3023"></path>
                        <path d="M52.1870187,35 C54.4026403,34.9211712 56.5973597,34.8620495 58.8129813,34.8029279 L58.8129813,5.7545045 L65,5.7545045 L65,0 L46,0 L46,5.7545045 L52.1870187,5.7545045 L52.1870187,35 L52.1870187,35 Z" id="path3035"></path>
                        <path d="M5.92592593,38.2440358 L5.92592593,16.7281312 L13.2358674,37.3717694 C15.4775828,37.1197813 17.7387914,36.8871769 20,36.6545726 L20,0 L14.0740741,0 L14.0740741,22.2718688 L6.17933723,0 L5.92592593,0 L0,0 L0,39 L0.0389863548,39 C1.98830409,38.7480119 3.95711501,38.4766402 5.92592593,38.2440358" id="path3039"></path>
                        <path d="M40,5.6516129 L40,0 L26,0 L26,30.3483871 L26,36 L26,36 C30.6420079,35.5741935 35.3025099,35.2258065 39.9815059,34.9354839 L39.9815059,34.9354839 L39.9815059,33.3096774 L39.9815059,29.283871 C37.2813738,29.4387097 34.5812417,29.6322581 31.8811096,29.8451613 L31.8811096,20.8258065 L38.9273448,20.8258065 L38.9273448,15.1741935 L31.8811096,15.1741935 L31.8811096,5.6516129 L40,5.6516129 L40,5.6516129 Z" id="path3051"></path>
                        <path d="M96.8811096,28.8904185 L96.8811096,0 L91,0 L91,28.6205947 L91,34.248348 L91,34.248348 C95.678996,34.4218062 100.339498,34.6723568 105,35 L105,35 L105,33.188326 L105,29.3915198 C102.281374,29.1795154 99.5812417,29.0253304 96.8811096,28.8904185" id="path3055"></path>
                    </g>
                </g>
            </g>
        </g>
    </g>
</svg>