<?xml version="1.0" encoding="UTF-8"?>
<svg width="263px" height="98px" viewBox="0 0 263 98" version="1.1" xmlns="http://www.w3.org/2000/svg" xmlns:xlink="http://www.w3.org/1999/xlink">
    <title>pinterest</title>
    <defs>
        <rect id="path-1" x="0" y="0" width="263" height="237"></rect>
        <filter x="-3.4%" y="-2.5%" width="106.8%" height="107.6%" filterUnits="objectBoundingBox" id="filter-3">
            <feOffset dx="0" dy="3" in="SourceAlpha" result="shadowOffsetOuter1"></feOffset>
            <feGaussianBlur stdDeviation="2.5" in="shadowOffsetOuter1" result="shadowBlurOuter1"></feGaussianBlur>
            <feColorMatrix values="0 0 0 0 0   0 0 0 0 0   0 0 0 0 0  0 0 0 0.123630764 0" type="matrix" in="shadowBlurOuter1"></feColorMatrix>
        </filter>
    </defs>
    <g id="页面-1" stroke="none" stroke-width="1" fill="none" fill-rule="evenodd">
        <g id="桌面端-HD备份-3" transform="translate(-327.000000, -859.000000)">
            <g id="矩形" transform="translate(327.000000, 859.000000)">
                <mask id="mask-2" fill="white">
                    <use xlink:href="#path-1"></use>
                </mask>
                <g id="蒙版">
                    <use fill="black" fill-opacity="1" filter="url(#filter-3)" xlink:href="#path-1"></use>
                    <use fill="#FFFFFF" fill-rule="evenodd" xlink:href="#path-1"></use>
                </g>
                <rect fill="#F8F8F8" mask="url(#mask-2)" x="-4" y="-2" width="272" height="100"></rect>
                <path d="M132.107874,17 C114.85474,17 101,30.7489224 101,47.8702824 C101,60.5815958 108.580906,71.2175157 119.560161,76.1463887 C119.560161,74.071083 119.560161,71.4769509 120.083024,69.14221 C120.605844,66.5480778 124.004149,52.280373 124.004149,52.280373 C124.004149,52.280373 122.95851,50.2050672 122.95851,47.351456 C122.95851,42.6820181 125.572652,39.3096243 128.970957,39.3096243 C131.846487,39.3096243 133.153513,41.3849301 133.153513,43.9791061 C133.153513,46.8326735 131.323623,50.9833288 130.539416,54.8745051 C129.755164,58.2468549 132.369262,60.8409871 135.506179,60.8409871 C141.518626,60.8409871 145.439795,53.3179819 145.439795,44.4979765 C145.439795,37.753189 140.734375,32.8243159 132.630694,32.8243159 C123.219853,32.8243159 117.468838,39.8284947 117.468838,47.6109351 C117.468838,50.2050672 118.25309,52.280373 119.560116,53.577461 C120.08298,54.3557226 120.344368,54.6150699 120.08298,55.3933315 C119.821593,55.9122019 119.560116,57.2092899 119.560116,57.9875515 C119.298773,58.7657253 118.775909,59.0251605 117.991658,58.7657253 C113.547669,56.9498548 111.717823,52.2804169 111.717823,47.0921087 C111.717823,38.2720593 119.037297,27.8954429 133.937765,27.8954429 C145.701227,27.8954429 153.543565,36.4561449 153.543565,45.5356294 C153.543565,57.7280724 146.746866,66.5481217 136.813295,66.5481217 C133.414945,66.5481217 130.277984,64.7322512 129.232345,62.6569455 C129.232345,62.6569455 127.402454,69.6611243 127.141066,71.2176475 C126.356859,73.5523005 125.311176,75.8870853 124.004149,77.7029559 C126.879679,78.4812175 129.755208,79 132.892081,79 C150.14526,79 164,65.2510776 164,48.1297615 C163.215749,30.7489663 149.361008,17 132.107874,17 Z" id="路径" fill="#CA3737" fill-rule="nonzero" mask="url(#mask-2)"></path>
            </g>
        </g>
    </g>
</svg>