<?xml version="1.0" encoding="UTF-8"?>
<svg width="263px" height="98px" viewBox="0 0 263 98" version="1.1" xmlns="http://www.w3.org/2000/svg" xmlns:xlink="http://www.w3.org/1999/xlink">
    <title>pornhub</title>
    <defs>
        <rect id="path-1" x="0" y="0" width="263" height="237"></rect>
        <filter x="-3.4%" y="-2.5%" width="106.8%" height="107.6%" filterUnits="objectBoundingBox" id="filter-3">
            <feOffset dx="0" dy="3" in="SourceAlpha" result="shadowOffsetOuter1"></feOffset>
            <feGaussianBlur stdDeviation="2.5" in="shadowOffsetOuter1" result="shadowBlurOuter1"></feGaussianBlur>
            <feColorMatrix values="0 0 0 0 0   0 0 0 0 0   0 0 0 0 0  0 0 0 0.123630764 0" type="matrix" in="shadowBlurOuter1"></feColorMatrix>
        </filter>
    </defs>
    <g id="页面-1" stroke="none" stroke-width="1" fill="none" fill-rule="evenodd">
        <g id="桌面端-HD备份-3" transform="translate(-893.000000, -1116.000000)">
            <g id="矩形" transform="translate(893.000000, 1116.000000)">
                <mask id="mask-2" fill="white">
                    <use xlink:href="#path-1"></use>
                </mask>
                <g id="蒙版">
                    <use fill="black" fill-opacity="1" filter="url(#filter-3)" xlink:href="#path-1"></use>
                    <use fill="#FFFFFF" fill-rule="evenodd" xlink:href="#path-1"></use>
                </g>
                <rect fill="#000000" mask="url(#mask-2)" x="-4" y="-2" width="272" height="100"></rect>
                <g id="pornhub-seeklogo.com" mask="url(#mask-2)">
                    <g transform="translate(59.000000, 28.000000)">
                        <path d="M0,31 L0,5 L8.44845089,5 C11.6490031,5 13.7312706,5.12965156 14.7033743,5.38652372 C18.2588216,6.32487689 20,9.46649629 20,13.0221904 C20,16.9376675 17.7821091,20.0590289 13.9781541,20.8628685 C12.7250579,21.1278439 11.0894547,21.2072555 8.70914037,21.2072555 L5.28363179,21.2072555 L5.28363179,31 L0,31 Z M5.28363179,9.41868728 L5.28363179,16.7561553 L8.15608885,16.7561553 C10.2277988,16.7561553 11.6067731,16.6175902 12.3043814,16.3461323 C13.72721,15.7918718 14.5092784,14.6136633 14.5092784,13.1007916 C14.5092784,11.2791872 13.3877452,9.92351805 11.5937792,9.59452721 C10.9692614,9.47946145 9.71129248,9.41868728 7.81662403,9.41868728 L5.28363179,9.41868728 L5.28363179,9.41868728 Z" id="Fill-1" fill="#FFFFFF"></path>
                        <path d="M21,21.7292627 C21,20.047235 21.3965424,18.4203423 22.1951677,16.8494075 C22.9945845,15.2710665 24.124849,14.0745556 25.5867528,13.2458855 C27.0486565,12.4172153 28.6767757,12 30.4821912,12 C33.2698604,12 35.5493855,12.9389401 37.331056,14.8176432 C39.111935,16.7021066 40,19.071264 40,21.9440421 C40,24.8423305 39.1000625,27.2427584 37.307311,29.1453259 C35.507436,31.0478934 33.2469069,32 30.5178088,32 C28.8311185,32 27.2204124,31.6008887 25.688065,30.8084266 C24.1604666,30.0167874 22.9945845,28.8564845 22.1951677,27.3217577 C21.3965424,25.7936142 21,23.9272548 21,21.7292627 Z M26.0070402,22 C26.0070402,23.8968071 26.4392002,25.3517117 27.3035201,26.3581303 C28.1733805,27.3711323 29.2395334,27.8747531 30.5114768,27.8747531 C31.7786711,27.8747531 32.8440325,27.3711323 33.7020204,26.3581303 C34.5607998,25.3517117 34.9929598,23.8844635 34.9929598,21.9629691 C34.9929598,20.0908492 34.5607998,18.6474654 33.7020204,17.6410467 C32.8440325,16.6280448 31.7786711,16.1252469 30.5114768,16.1252469 C29.2395334,16.1252469 28.1733805,16.6280448 27.3035201,17.6410467 C26.4392002,18.6474654 26.0070402,20.10237 26.0070402,22 L26.0070402,22 Z" id="Fill-2" fill="#FFFFFF"></path>
                        <path d="M47.8872987,31 L43,31 L43,12.4410211 L47.5565494,12.4410211 L47.5565494,14.1934771 C49.0687736,12.3334351 51.6893262,11.0153077 55,12.9582307 L53.4702842,17.2799991 C52.6442059,16.7436631 51.8769628,16.4758936 51.16935,16.4758936 C50.4800239,16.4758936 49.895647,16.6647667 49.4209899,17.0417161 C48.9447426,17.4210563 48.5710594,18.103231 48.2975552,19.0922251 C48.0240509,20.0812191 47.8872987,22.155636 47.8872987,25.3083035 L47.8872987,31" id="Fill-3" fill="#FFFFFF"></path>
                        <path d="M75,31 L70.0478052,31 L70.0478052,21.5438192 C70.0478052,19.5424774 69.9421157,18.2486162 69.7307366,17.6654227 C69.2847589,16.436892 68.2238602,15.8361707 66.9996232,15.8361707 C65.3758478,15.8361707 63.864968,16.7492033 63.334919,18.3505954 C63.0803033,19.119423 62.9513941,20.5375713 62.9513941,22.6106172 L62.9513941,31 L58,31 L58,12.446159 L62.6103052,12.446159 L62.6103052,14.1391731 C63.5142709,12.7688276 66.1204785,12 68.6057837,12 C71.4057555,12 74.0503956,13.2325143 74.7245667,16.0990859 C74.90552,16.8687102 75,18.0534217 75,19.4827239 L75,31" id="Fill-4" fill="#FFFFFF"></path>
                        <path d="M84.074553,0 L142.925447,0 C144.617056,0 146,1.39495598 146,3.10044413 L146,37.8995559 C146,39.605044 144.617056,41 142.925447,41 L84.074553,41 C82.3829444,41 81,39.605044 81,37.8995559 L81,3.10044413 C81,1.39495598 82.3829444,0 84.074553,0" id="Fill-5" fill="#F8981E"></path>
                        <path d="M124,31.5534423 L124.015769,7 L128.922562,7 L128.653651,14.8372474 C129.936787,13.8614065 132.072304,13.3048158 133.995349,13.3048158 C136.204733,13.4341247 138.146867,14.1417098 139.50636,15.4307836 C141.179583,17.0178302 142.021175,19.4594404 141.999595,22.4391686 C141.999595,24.3145501 141.709105,26.2758698 140.858384,27.900665 C139.606787,30.291676 137.063754,32 134.206161,32 C131.878091,32 129.84632,31.2715328 128.552395,30.1776271 L128.552395,31.5534423 L124,31.5534423 Z M128.852014,22.3524272 C128.852014,25.9835191 130.404061,28.1375976 133.06329,28.1375976 C135.946612,28.1375976 136.956688,25.4622675 136.956688,22.749992 C136.956688,20.0529765 136.201413,17.0106017 132.874057,17.0106017 C129.970816,17.0106017 128.852014,19.5341344 128.852014,22.3524272 L128.852014,22.3524272 Z" id="Fill-6" fill="#000000"></path>
                        <path d="M102,32 L97.33892,32 L97.33892,22.6553438 C97.33892,20.7092556 97.2397481,19.3753555 97.0406109,18.8081211 C96.6209154,17.6139863 95.6228492,17.1824304 94.4708683,17.1824304 C92.7024347,17.1824304 91.5203054,18.1460751 91.0212724,19.7031092 C90.781673,20.4501586 90.6602866,21.905025 90.6602866,23.9205872 L90.6602866,32 L86,32 L86,7 L90.6896415,7 L90.6896415,15.0761435 C91.6520058,14.2187531 93.5505529,13.4529048 95.8894233,13.4529048 C98.6733773,13.4529048 101.106659,14.8047863 101.74136,17.6303331 C101.911142,18.3781999 102,19.5306503 102,20.9193121 L102,32" id="Fill-7" fill="#000000"></path>
                        <path d="M105,14 L109.677778,14 L109.677778,23.0408316 C109.677778,24.9285997 109.776984,26.2225257 109.97619,26.7719685 C110.395238,27.9303176 111.463492,28.3735189 112.542063,28.3735189 C114.259524,28.3735189 115.656349,27.3182399 116.010317,25.9283795 C116.25,25.2037176 116.298413,23.7440867 116.298413,21.7897194 L116.298413,14 L121,14 L121,31.5782055 L116.625397,31.5782055 L116.625397,29.6951945 C115.490476,31.0295556 113.444444,32 111.10873,32 C108.268254,32 105.916667,30.7282738 105.28254,27.9874025 C105.112698,27.2619478 105,26.1440338 105,24.7961943 L105,14" id="Fill-8" fill="#000000"></path>
                    </g>
                </g>
            </g>
        </g>
    </g>
</svg>