<?xml version="1.0" encoding="UTF-8"?>
<svg width="263px" height="98px" viewBox="0 0 263 98" version="1.1" xmlns="http://www.w3.org/2000/svg" xmlns:xlink="http://www.w3.org/1999/xlink">
    <title>spotify</title>
    <defs>
        <rect id="path-1" x="0" y="0" width="263" height="237"></rect>
        <filter x="-3.4%" y="-2.5%" width="106.8%" height="107.6%" filterUnits="objectBoundingBox" id="filter-3">
            <feOffset dx="0" dy="3" in="SourceAlpha" result="shadowOffsetOuter1"></feOffset>
            <feGaussianBlur stdDeviation="2.5" in="shadowOffsetOuter1" result="shadowBlurOuter1"></feGaussianBlur>
            <feColorMatrix values="0 0 0 0 0   0 0 0 0 0   0 0 0 0 0  0 0 0 0.123630764 0" type="matrix" in="shadowBlurOuter1"></feColorMatrix>
        </filter>
    </defs>
    <g id="页面-1" stroke="none" stroke-width="1" fill="none" fill-rule="evenodd">
        <g id="桌面端-HD备份-3" transform="translate(-610.000000, -1116.000000)">
            <g id="矩形" transform="translate(610.000000, 1116.000000)">
                <mask id="mask-2" fill="white">
                    <use xlink:href="#path-1"></use>
                </mask>
                <g id="蒙版">
                    <use fill="black" fill-opacity="1" filter="url(#filter-3)" xlink:href="#path-1"></use>
                    <use fill="#FFFFFF" fill-rule="evenodd" xlink:href="#path-1"></use>
                </g>
                <rect fill="#F8F8F8" mask="url(#mask-2)" x="-4" y="-2" width="272" height="100"></rect>
                <g id="spotify-seeklogo.com" mask="url(#mask-2)" fill="#2EBD59" fill-rule="nonzero">
                    <g transform="translate(61.000000, 27.000000)" id="形状">
                        <path d="M21.4446443,0 C9.60134746,0 0,9.62581179 0,21.4996112 C0,33.374687 9.60134746,43 21.4446443,43 C33.288468,43 42.8892887,33.3747017 42.8892887,21.4996112 C42.8892887,9.62657467 33.2889655,0.0010269473 21.4443809,0.0010269473 L21.4446443,0 Z M31.2790221,31.0086151 C30.8938819,31.6419922 30.0708495,31.8404424 29.4411481,31.4545596 C24.4053954,28.3688471 18.0669702,27.6717992 10.6023317,29.3814171 C9.88301785,29.5467703 9.16600143,29.0946494 9.00212659,28.3737177 C8.83746158,27.6525513 9.28635776,26.9336882 10.0074714,26.7693913 C18.1763225,24.8970023 25.1833582,25.7029065 30.835745,29.1657582 C31.4656952,29.5534454 31.6654208,30.3775707 31.2787587,31.0091286 L31.2790221,31.0086151 L31.2790221,31.0086151 Z M33.9037998,25.1552942 C33.4187894,25.9442391 32.3898708,26.1917334 31.6039769,25.7072637 C25.8409647,22.1555812 17.0531675,21.1268294 10.2351315,23.2017911 C9.35088924,23.4695602 8.41698266,22.9699504 8.14861365,22.0849859 C7.88229327,21.1984663 8.38088308,20.2639442 9.26357419,19.9943706 C17.0516456,17.6252178 26.7333867,18.7728167 33.3529702,22.8510885 C34.1391421,23.3363211 34.3875225,24.3684032 33.9035364,25.1555436 L33.9037998,25.1552942 Z M34.1291478,19.059335 C27.2165973,14.9435943 15.8145143,14.5651642 9.21566579,16.5730956 C8.15603258,16.895293 7.03543833,16.2955558 6.71431741,15.2331788 C6.39319648,14.170303 6.99088089,13.0475855 8.05128965,12.7246106 C15.6263048,10.4191286 28.2188985,10.8645596 36.176215,15.6005765 C37.1293347,16.1677008 37.4420124,17.4018274 36.8770913,18.3561255 C36.3137212,19.3117 35.0794287,19.6267087 34.1293965,19.059335 L34.1291478,19.059335 L34.1291478,19.059335 Z M58.3437875,19.8480306 C54.6411586,18.962802 53.9820156,18.3415135 53.9820156,17.0359848 C53.9820156,15.8026357 55.1402459,14.9726129 56.8626218,14.9726129 C58.5322458,14.9726129 60.1877782,15.6028945 61.9234701,16.9004424 C61.9759732,16.9397305 62.0417924,16.9553694 62.1065727,16.9451146 C62.1713675,16.9353586 62.2287289,16.8996649 62.2666283,16.8460142 L64.074534,14.2909693 C64.1487964,14.1857072 64.128559,14.0406582 64.0284401,13.9602923 C61.9626719,12.2984421 59.6364657,11.490484 56.9174516,11.490484 C52.9195729,11.490484 50.1270573,13.895844 50.1270573,17.3374085 C50.1270573,21.027993 52.5359691,22.3347835 56.6987616,23.3434951 C60.2418471,24.161708 60.8397949,24.84721 60.8397949,26.0726076 C60.8397949,27.4304813 59.6305833,28.274632 57.6846592,28.274632 C55.5233815,28.274632 53.7605454,27.5447365 51.7884868,25.8325513 C51.7395834,25.7901824 51.6724765,25.7709491 51.6105204,25.7745434 C51.5452134,25.7799276 51.48554,25.8102225 51.4440702,25.8602935 L49.4169623,28.2790038 C49.3319446,28.3793806 49.3426999,28.5293149 49.4410482,28.6161066 C51.7354861,30.6697372 54.5574433,31.7544576 57.6027291,31.7544576 C61.9106955,31.7544576 64.694543,29.3945327 64.694543,25.7419452 C64.7022014,22.6585359 62.8610203,20.951236 58.3514991,19.8513755 L58.3437875,19.8480306 L58.3437875,19.8480306 Z M74.440777,16.1869634 C72.573476,16.1869634 71.0418704,16.9243116 69.7788972,18.4352005 L69.7788972,16.7345757 C69.7788972,16.6003097 69.6703204,16.4909398 69.5366481,16.4909398 L66.2212226,16.4909398 C66.0873015,16.4909398 65.9789735,16.6003097 65.9789735,16.7345757 L65.9789735,35.6308902 C65.9789735,35.7651563 66.0872869,35.8745261 66.2212226,35.8745261 L69.5366481,35.8745261 C69.6703204,35.8745261 69.7788972,35.7651709 69.7788972,35.6308902 L69.7788972,29.6661309 C71.0421338,31.087426 72.5739882,31.7819064 74.440777,31.7819064 C77.910361,31.7819064 81.4227374,29.104156 81.4227374,23.9853372 C81.4278533,18.865242 77.9144728,16.186714 74.4446255,16.186714 L74.440777,16.1869634 Z M77.5674808,23.9853372 C77.5674808,26.5919935 75.9659734,28.4109666 73.6727939,28.4109666 C71.4057636,28.4109666 69.6956794,26.5093096 69.6956794,23.9853372 C69.6956794,21.4616288 71.4057636,19.5597224 73.6727939,19.5597224 C75.9288495,19.5594584 77.5677442,21.4202869 77.5677442,23.9850731 L77.5674808,23.9853372 L77.5674808,23.9853372 Z M90.4251071,16.1869634 C85.9568217,16.1869634 82.4562451,19.6364794 82.4562451,24.0410417 C82.4562451,28.3976016 85.9327505,31.8109103 90.3703066,31.8109103 C94.8544688,31.8109103 98.365786,28.3729548 98.365786,23.9853225 C98.365786,19.612845 94.8780133,16.1874769 90.4248437,16.1874769 L90.4251071,16.1869634 L90.4251071,16.1869634 Z M90.4251071,28.4368897 C88.0484464,28.4368897 86.2566809,26.5223958 86.2566809,23.9840462 C86.2566809,21.4348989 87.9864904,19.5851174 90.370292,19.5851174 C92.7623173,19.5851174 94.5661111,21.4995966 94.5661111,24.0397507 C94.5661111,26.5883845 92.8248002,28.4368897 90.4253413,28.4368897 L90.4251071,28.4368897 L90.4251071,28.4368897 Z M107.90746,16.4909545 L104.259134,16.4909545 L104.259134,12.7513259 C104.259134,12.6173093 104.15107,12.5079394 104.017149,12.5079394 L100.702235,12.5079394 C100.568051,12.5079394 100.459225,12.6173093 100.459225,12.7513259 L100.459225,16.4909545 L98.8651368,16.4909545 C98.7317278,16.4909545 98.6236485,16.6003097 98.6236485,16.7345904 L98.6236485,19.5912937 C98.6236485,19.7253104 98.7317278,19.8349297 98.8651368,19.8349297 L100.459225,19.8349297 L100.459225,27.2266323 C100.459225,30.2137579 101.942162,31.7282558 104.866813,31.7282558 C106.056051,31.7282558 107.042694,31.4820378 107.972518,30.953424 C108.048054,30.9110551 108.094909,30.8294275 108.094909,30.7426504 L108.094909,28.022267 C108.094909,27.9383067 108.051361,27.8589824 107.979674,27.8150877 C107.90746,27.769638 107.817584,27.7673347 107.743571,27.8040407 C107.104899,28.1262528 106.487519,28.2748961 105.797383,28.2748961 C104.733653,28.2748961 104.259134,27.7906904 104.259134,26.7054712 L104.259134,19.8362353 L107.90746,19.8362353 C108.041381,19.8362353 108.149197,19.7268655 108.149197,19.5925994 L108.149197,16.7361455 C108.154319,16.6018795 108.046766,16.4925096 107.91106,16.4925096 L107.90746,16.4909545 L107.90746,16.4909545 Z M120.619137,16.5055812 L120.619137,16.0462717 C120.619137,14.6950584 121.135886,14.0925044 122.294907,14.0925044 C122.986052,14.0925044 123.541242,14.2301153 124.162983,14.4380722 C124.239558,14.4622201 124.319439,14.4501461 124.381673,14.4041829 C124.445693,14.3582197 124.481807,14.2845436 124.481807,14.2064956 L124.481807,11.4054968 C124.481807,11.2984302 124.413178,11.2037017 124.310221,11.1721157 C123.653375,10.9762182 122.812944,10.7752006 121.554595,10.7752006 C118.492408,10.7752006 116.873751,12.5040663 116.873751,15.773089 L116.873751,16.4765479 L115.28095,16.4765479 C115.147277,16.4765479 115.037676,16.5859178 115.037676,16.7199344 L115.037676,19.5912791 C115.037676,19.7252957 115.147277,19.834915 115.28095,19.834915 L116.873751,19.834915 L116.873751,31.2363187 C116.873751,31.3705847 116.981815,31.4799546 117.115502,31.4799546 L120.430928,31.4799546 C120.564849,31.4799546 120.673938,31.3705847 120.673938,31.2363187 L120.673938,19.8357072 L123.7694,19.8357072 L128.511176,31.2342941 C127.972901,32.4319641 127.443568,32.6702158 126.720947,32.6702158 C126.136827,32.6702158 125.52173,32.4953707 124.892789,32.1503164 C124.833643,32.1177035 124.763477,32.1123194 124.699721,32.1320954 C124.636463,32.1544242 124.583214,32.2016638 124.556318,32.2632806 L123.432651,34.7348787 C123.379124,34.8517013 123.424969,34.9888134 123.537131,35.0493887 C124.710213,35.6863454 125.769115,35.9582224 127.077919,35.9582224 C129.526003,35.9582224 130.87913,34.8149806 132.071938,31.7392734 L137.823668,16.8382974 C137.852598,16.7633303 137.843906,16.6786071 137.79806,16.6121196 C137.752508,16.5461309 137.678992,16.506344 137.598569,16.506344 L134.147159,16.506344 C134.043733,16.506344 133.951238,16.5723181 133.917465,16.6696287 L130.381828,26.7948009 L126.509178,16.6629535 C126.473854,16.5687238 126.383203,16.5063294 126.282821,16.5063294 L120.618376,16.5063294 L120.619137,16.5055812 L120.619137,16.5055812 Z M113.249233,16.4909545 L109.933807,16.4909545 C109.799871,16.4909545 109.690797,16.6003097 109.690797,16.7345904 L109.690797,31.2363333 C109.690797,31.3705994 109.799871,31.4799692 109.933807,31.4799692 L113.249233,31.4799692 C113.382905,31.4799692 113.492243,31.3705994 113.492243,31.2363333 L113.492243,16.7356027 C113.492387,16.6708938 113.466792,16.6087975 113.421128,16.5630675 C113.375463,16.5173374 113.313497,16.4917479 113.248955,16.4919668 L113.249233,16.4909545 Z M111.610338,9.88794743 C110.296925,9.88794743 109.231131,10.9539041 109.231131,12.2707146 C109.231131,13.588288 110.297188,14.6555503 111.610352,14.6555503 C112.923268,14.6555503 113.988008,13.588288 113.988008,12.2707146 C113.988008,10.9541681 112.922741,9.88794743 111.61164,9.88794743 L111.610338,9.88794743 L111.610338,9.88794743 Z M140.654581,21.15353 C139.342441,21.15353 138.321482,20.0970506 138.321482,18.814144 C138.321482,17.5312375 139.355771,16.4626988 140.666872,16.4626988 C141.979042,16.4626988 143,17.5189141 143,18.8007937 C143,20.083715 141.965433,21.15353 140.654347,21.15353 L140.654581,21.15353 L140.654581,21.15353 Z M140.667385,16.6953023 C139.472279,16.6953023 138.568063,17.647796 138.568063,18.814144 C138.568063,19.9799933 139.46587,20.9196501 140.655356,20.9196501 C141.850198,20.9196501 142.755453,19.967934 142.755453,18.8007937 C142.755453,17.6349591 141.856608,16.6953023 140.668424,16.6953023 L140.667385,16.6953023 L140.667385,16.6953023 Z M141.18469,19.0413488 L141.844609,19.9676699 L141.28816,19.9676699 L140.694031,19.117871 L140.183194,19.117871 L140.183194,19.9676699 L139.717396,19.9676699 L139.717396,17.5122389 L140.809559,17.5122389 C141.378562,17.5122389 141.752699,17.8041414 141.752699,18.2955503 C141.755245,18.6981137 141.522229,18.9440675 141.186753,19.0413635 L141.18469,19.0413635 L141.18469,19.0413488 Z M140.790331,17.9335514 L140.182886,17.9335514 L140.182886,18.7101876 L140.790331,18.7101876 C141.093512,18.7101876 141.274537,18.5615297 141.274537,18.3214881 C141.274537,18.068859 141.092736,17.9335661 140.790565,17.9335661 L140.790331,17.9335661 L140.790331,17.9335514 Z"></path>
                    </g>
                </g>
            </g>
        </g>
    </g>
</svg>