<?xml version="1.0" encoding="UTF-8"?>
<svg width="263px" height="98px" viewBox="0 0 263 98" version="1.1" xmlns="http://www.w3.org/2000/svg" xmlns:xlink="http://www.w3.org/1999/xlink">
    <title>tiktok</title>
    <defs>
        <rect id="path-1" x="0" y="0" width="263" height="237"></rect>
        <filter x="-3.4%" y="-2.5%" width="106.8%" height="107.6%" filterUnits="objectBoundingBox" id="filter-3">
            <feOffset dx="0" dy="3" in="SourceAlpha" result="shadowOffsetOuter1"></feOffset>
            <feGaussianBlur stdDeviation="2.5" in="shadowOffsetOuter1" result="shadowBlurOuter1"></feGaussianBlur>
            <feColorMatrix values="0 0 0 0 0   0 0 0 0 0   0 0 0 0 0  0 0 0 0.123630764 0" type="matrix" in="shadowBlurOuter1"></feColorMatrix>
        </filter>
    </defs>
    <g id="页面-1" stroke="none" stroke-width="1" fill="none" fill-rule="evenodd">
        <g id="桌面端-HD备份-3" transform="translate(-893.000000, -602.000000)">
            <g id="矩形" transform="translate(893.000000, 602.000000)">
                <mask id="mask-2" fill="white">
                    <use xlink:href="#path-1"></use>
                </mask>
                <g id="蒙版">
                    <use fill="black" fill-opacity="1" filter="url(#filter-3)" xlink:href="#path-1"></use>
                    <use fill="#FFFFFF" fill-rule="evenodd" xlink:href="#path-1"></use>
                </g>
                <rect fill="#000000" mask="url(#mask-2)" x="-4" y="-2" width="272" height="100"></rect>
                <g id="tik-tok-seeklogo.com" mask="url(#mask-2)" fill-rule="nonzero">
                    <g transform="translate(76.000000, 32.000000)">
                        <path d="M21.3657618,11.6993082 C23.5173693,13.2370471 26.1531857,14.1418214 29,14.1418214 L29,8.66478506 C28.4612404,8.66489945 27.9238532,8.60873 27.3967585,8.49707749 L27.3967585,12.8082831 C24.5501729,12.8082831 21.9146996,11.9035088 19.7625204,10.3658844 L19.7625204,21.5429189 C19.7625204,27.134239 15.2289803,31.6665761 9.63690509,31.6665761 C7.55036962,31.6665761 5.6110181,31.0358995 4,29.9542658 C5.83871292,31.8339405 8.40293865,33 11.2398035,33 C16.8322217,33 21.3659906,28.4676629 21.3659906,22.876114 L21.3659906,11.6993082 L21.3657618,11.6993082 Z M23.343539,6.17365269 C22.243948,4.97258736 21.5219804,3.42043436 21.3657618,1.70446331 L21.3657618,1 L19.8464621,1 C20.2288888,3.1809992 21.5333022,5.04431495 23.343539,6.17365269 L23.343539,6.17365269 Z M7.53698926,25.6636518 C6.92263637,24.8582894 6.59064336,23.8730932 6.59213006,22.8600983 C6.59213006,20.3028439 8.66574262,18.2293789 11.2240215,18.2293789 C11.7007969,18.2292645 12.1747132,18.3022504 12.6290736,18.446392 L12.6290736,12.8469497 C12.0980906,12.7741925 11.5621901,12.743305 11.0265183,12.7546304 L11.0265183,17.1129681 C10.5718148,16.9688265 10.0976698,16.8956118 9.62078004,16.8960694 C7.06250114,16.8960694 4.98900295,18.9693056 4.98900295,21.5269032 C4.98900295,23.3353079 6.02546614,24.9009599 7.53698926,25.6636518 Z" id="形状" fill="#FF004F"></path>
                        <path d="M20.4478722,10.1621591 C22.5769037,11.6663558 25.184031,12.5514604 28,12.5514604 L28,8.33397993 C26.4281438,8.00294699 25.03662,7.19080837 23.9903751,6.06117805 C22.1994953,4.95628008 20.9092246,3.1334726 20.5309111,1 L16.5830563,1 L16.5830563,22.4003059 C16.5741189,24.8951393 14.5263162,26.915246 12.0009834,26.915246 C10.5128448,26.915246 9.19078409,26.2138994 8.35349404,25.1274667 C6.85834131,24.3813556 5.83302585,22.8496288 5.83302585,21.0807625 C5.83302585,18.5789906 7.88422243,16.5506025 10.4149856,16.5506025 C10.8998695,16.5506025 11.3672178,16.6252471 11.8056044,16.7627858 L11.8056044,12.499198 C6.37085545,12.6102138 2,17.0007088 2,22.4004178 C2,25.0959078 3.08844313,27.539486 4.85499956,29.3249151 C6.44869028,30.3829224 8.36718301,31 10.4312767,31 C15.9633191,31 20.4479854,26.5659716 20.4479854,21.0963181 L20.4479854,10.1621591 L20.4478722,10.1621591 Z" id="路径" fill="#FFFFFF"></path>
                        <path d="M28,8.74646371 L28,7.5918113 C26.5612907,7.59396423 25.1508296,7.19657797 23.9301832,6.44509074 C25.0107366,7.61186758 26.4335994,8.41638496 28,8.74646371 Z M20.4187862,1.32065495 C20.3821554,1.11419992 20.3540219,0.906385149 20.3345008,0.69777719 L20.3345008,0 L14.8017454,0 L14.8017454,21.668486 C14.7929035,24.1942173 12.7144744,26.2396178 10.1510019,26.2396178 C9.39840386,26.2396178 8.68783373,26.0634171 8.05856347,25.7503352 C8.90842281,26.8502578 10.2503301,27.5602727 11.7608084,27.5602727 C14.3238216,27.5602727 16.40271,25.5150989 16.4116668,22.9890276 L16.4116668,1.32065495 L20.4187862,1.32065495 Z M11.5627261,12.9638345 L11.5627261,11.7346226 C11.1004191,11.6723008 10.6343228,11.6410266 10.1676523,11.641252 C4.55210427,11.641252 0,16.1306869 0,21.668486 C0,25.1403751 1.78905667,28.2001473 4.50766493,30 C2.71458919,28.1923288 1.60980651,25.7180412 1.60980651,22.9889143 C1.60980651,17.5217087 6.0461618,13.0762403 11.5627261,12.9638345 Z" id="形状" fill="#00F2EA"></path>
                        <path d="M91.0474766,27 C94.8872001,27 98,23.8659177 98,20.0002228 C98,16.1346393 94.8872001,13 91.0474766,13 L90,13 C93.8398332,13 96.9526331,16.1345279 96.9526331,20.0002228 C96.9526331,23.8659177 93.8398332,27 90,27 L91.0474766,27 Z" id="路径" fill="#FF004F"></path>
                        <path d="M89,13 L87.9526762,13 C84.1132205,13 81,16.1345279 81,20.0002228 C81,23.8659177 84.1132205,27 87.9526762,27 L89,27 C85.1599956,27 82.0473238,23.8659177 82.0473238,20.0002228 C82.0472141,16.1346393 85.1599956,13 89,13 Z" id="路径" fill="#00F2EA"></path>
                        <path d="M35,10 L35,13.5142777 L39.2181442,13.5142777 L39.2181442,26.9052282 L43.4379843,26.9052282 L43.4379843,13.6091598 L46.8716493,13.6091598 L48.0489899,10 L35,10 L35,10 Z M69.535851,10 L69.535851,13.5142777 L73.7539953,13.5142777 L73.7539953,26.9052282 L77.9738353,26.9052282 L77.9738353,13.6091598 L81.4073873,13.6091598 L82.5846148,10 L69.535851,10 L69.535851,10 Z M48.8345996,11.9942889 C48.8345996,10.8931051 49.7555346,10 50.8933064,10 C52.0320956,10 52.954048,10.8931051 52.954048,11.9942889 C52.954048,13.095583 52.0326609,13.9886881 50.8933064,13.9886881 C49.7555346,13.9881365 48.8345996,13.095583 48.8345996,11.9942889 Z M48.8345996,15.4136846 L52.954048,15.4136846 L52.954048,26.9052282 L48.8345996,26.9052282 L48.8345996,15.4136846 Z M54.7203981,10 L54.7203981,26.9051179 L58.8414292,26.9051179 L58.8414292,22.5367911 L60.1170134,21.39611 L64.1391226,27 L68.5538672,27 L62.7647296,18.8324183 L67.9648577,13.8932544 L62.9613299,13.8932544 L58.8414292,17.8819426 L58.8414292,10 L54.7203981,10 Z M99.1648351,10 L99.1648351,26.9051179 L103.286432,26.9051179 L103.286432,22.5367911 L104.56145,21.39611 L108.58469,27 L113,27 L107.210862,18.8324183 L112.410764,13.8932544 L107.407463,13.8932544 L103.286432,17.8819426 L103.286432,10 L99.1648351,10 Z" id="形状" fill="#FFFFFF"></path>
                        <path d="M90.0472966,27 C93.8867673,27 97,23.8659177 97,20.0002228 C97,16.1346393 93.8867673,13 90.0472966,13 L89.9523742,13 C86.112684,13 83,16.1345279 83,20.0002228 C83,23.8659177 86.112684,27 89.9523742,27 L90.0472966,27 Z M86.6188998,20.0002228 C86.6188998,18.1198402 88.1332675,16.5966869 90.0006584,16.5966869 C91.8667325,16.5966869 93.3809905,18.1198402 93.3809905,20.0002228 C93.3809905,21.8806053 91.8667325,23.4046498 90.0006584,23.4046498 C88.1332675,23.4043156 86.6188998,21.8806053 86.6188998,20.0002228 Z" id="形状" fill="#FFFFFF"></path>
                    </g>
                </g>
            </g>
        </g>
    </g>
</svg>