<?xml version="1.0" encoding="UTF-8"?>
<svg width="263px" height="98px" viewBox="0 0 263 98" version="1.1" xmlns="http://www.w3.org/2000/svg" xmlns:xlink="http://www.w3.org/1999/xlink">
    <title>twitter</title>
    <defs>
        <rect id="path-1" x="0" y="0" width="263" height="237"></rect>
        <filter x="-3.4%" y="-2.5%" width="106.8%" height="107.6%" filterUnits="objectBoundingBox" id="filter-3">
            <feOffset dx="0" dy="3" in="SourceAlpha" result="shadowOffsetOuter1"></feOffset>
            <feGaussianBlur stdDeviation="2.5" in="shadowOffsetOuter1" result="shadowBlurOuter1"></feGaussianBlur>
            <feColorMatrix values="0 0 0 0 0   0 0 0 0 0   0 0 0 0 0  0 0 0 0.123630764 0" type="matrix" in="shadowBlurOuter1"></feColorMatrix>
        </filter>
    </defs>
    <g id="页面-1" stroke="none" stroke-width="1" fill="none" fill-rule="evenodd">
        <g id="桌面端-HD备份-3" transform="translate(-893.000000, -345.000000)">
            <g id="shutterstock_3815914" opacity="0.400000006" transform="translate(192.000000, 79.000000)" stroke="#CFCFCF" stroke-linecap="round" stroke-linejoin="round" stroke-width="0.05">
                <path d="M244.552277,498.013935 L244.552277,499.124851 L241.642543,500.51367 L240.706826,501 L240.67217,500.965262 L239.494553,499.78487 L238.489523,500.617884 L237,499.124851 L237.138625,499.194327 L238.489523,499.78487 L239.044022,499.229065 L239.147991,499.020638 L239.217303,498.951162 L239.044022,498.638522 L238.489523,497.631819 L238.558835,497.631819 L240.360264,497.45813 L244.482965,498.013935 L244.552277,498.013935 Z M682.535134,116.292992 L682.535134,118.168141 L681.14958,118.723947 L680.629737,116.292992 L680.595081,116.189474 L682.535134,116.189474 L682.535134,116.292992 Z M694.55598,104.834368 L695.664285,105.668076 L696.496034,106.223187 L698.747993,106.883206 L704.602117,108.549928 L704.567461,108.654141 L703.493812,112.091798 L700.687354,112.091798 L696.218784,109.209947 L694.625293,104.973319 L694.55598,104.834368 Z M439.934869,148.551942 L440.038837,148.551942 L442.53339,147.37155 L444.680688,148.378253 L444.680688,150.531304 L453.167989,153.691058 L462.001852,161.156915 L462.660319,166.296031 L462.556351,166.296031 L456.21704,170.011591 L444.784656,165.809702 L442.913915,164.038766 L443.953601,166.851142 L448.14492,170.497226 L448.14492,177.963083 L452.683495,181.296526 L455.558573,181.296526 L452.232965,176.747953 L453.167989,175.046494 L461.448046,177.963083 L459.022806,173.206083 L464.80831,168.17118 L468.515136,169.559999 L470.004659,167.68485 L468.341855,163.969291 L469.172911,157.615045 L467.198201,155.114615 L472.533175,156.226226 L474.750478,160.149518 L470.835715,163.135583 L474.022698,165.809702 L477.902805,164.525096 L477.902805,161.156915 L490.686087,153.239466 L490.7554,156.225531 L492.626141,158.274369 L493.457196,156.225531 L502.01381,153.239466 L503.71127,155.114615 L506.309791,153.239466 L506.41376,153.239466 L501.009474,145.67009 L502.01381,143.725466 L502.01381,143.621253 L519.612224,154.073174 L522.799207,157.615045 L524.01148,154.732499 L519.265662,149.038272 L519.161693,141.468201 L526.124815,123.27252 L528.654024,122.092128 L529.693016,124.592558 L529.035242,126.537182 L532.36085,128.342855 L532.36085,128.411636 L530.143547,136.815415 L532.014288,139.801479 L531.806351,153.239466 L533.850373,155.739896 L533.018624,160.60111 L527.164501,166.851142 L529.485079,169.177883 L536.760107,161.156915 L536.205608,154.732499 L538.24963,153.239466 L534.716084,152.580142 L534.231591,149.038272 L535.547833,143.169661 L533.018624,137.926331 L537.314606,130.946804 L537.418574,130.946804 L535.339896,126.537182 L535.998364,125.356095 L541.401957,130.946804 L543.064761,129.071655 L547.083493,130.946804 L551.656724,135.59959 L554.35852,134.592887 L549.95857,130.390998 L548.746297,122.161603 L548.746297,122.092128 L563.469633,118.82816 L563.573601,118.723947 L562.533916,112.751122 L567.176459,106.952682 L577.257252,100.251057 L589.797248,96.4312841 L594.370478,96.4312841 L594.370478,91.5700705 L601.264288,84 L605.628888,87.5766082 L601.645506,90.7363623 L608.608628,91.5700705 L606.460637,96.4312841 L609.439683,96.4312841 L610.098151,94.1045434 L610.202119,94.1045434 L616.610742,94.7298246 L621.945716,99.4173489 L622.396247,107.820433 L607.95016,121.501584 L606.564606,124.592558 L608.989153,124.592558 L614.670689,122.092128 L613.181166,120.112766 L614.670689,118.168141 L622.396247,122.161603 L627.246034,120.112766 L633.377407,121.501584 L632.92757,124.696771 L643.424237,125.981377 L642.48852,123.376733 L642.869738,120.876998 L646.784501,120.876998 L655.167834,124.036752 L657.973599,127.960739 L655.549052,134.662363 L659.081904,140.84292 L661.021957,142.024007 L663.897728,134.002344 L668.019735,138.030544 L671.068787,135.703804 L673.042804,136.815415 L680.664393,136.815415 L678.89762,131.502609 L681.84201,127.265982 L681.876666,127.196506 L682.257885,127.265982 L691.923496,129.071655 L702.004289,132.161933 L702.350158,135.703804 L703.771061,137.370525 L705.815084,137.370525 L707.650475,141.572415 L715.583971,139.905693 L721.819312,140.84292 L724.521802,145.218499 L723.308835,148.10035 L725.803388,149.593382 L733.182384,149.142485 L739.868256,150.635518 L742.570053,146.989434 L742.570053,146.88522 L742.604709,146.919958 L744.822012,147.926661 L745.168574,148.10035 L745.272543,148.10035 L745.272543,148.135088 L744.718044,149.593382 L742.570053,149.593382 L742.77799,151.64222 L745.549099,154.801974 L748.632807,152.580142 L747.801058,146.433628 L759.995186,148.10035 L768.378518,152.580142 L780.641958,164.525096 L786.80868,165.531799 L791,170.11511 L788.194235,173.275559 L785.768995,173.275559 L785.768995,175.983721 L784.002222,179.629805 L783.898253,179.629805 L777.593599,175.983721 L775.06439,172.719753 L771.704126,173.275559 L770.69979,168.726291 L768.72508,170.566702 L769.937354,172.44185 L770.041322,172.44185 L768.378518,175.636342 L765.572753,177.68518 L765.468784,177.68518 L763.043544,177.129375 L763.043544,179.351902 L764.810317,179.351902 L767.720744,187.546559 L766.403808,189.421707 L766.29984,189.421707 L761.831271,188.415005 L747.974339,197.929005 L747.246559,200.151532 L744.718044,197.651797 L739.591007,199.144829 L738.032171,200.98524 L738.032171,198.276383 L734.845188,200.429435 L731.865449,200.429435 L730.861113,204.179732 L728.713122,207.721602 L728.990371,209.388324 L730.202645,208.728305 L731.484231,209.666227 L730.375926,213.034408 L731.311643,213.763208 L731.484924,215.74257 L730.653175,216.402589 L729.82212,215.464667 L727.951379,217.791408 L728.990371,221.333278 L728.158623,222.166292 L725.456826,222.652622 L724.348521,223.833013 L724.348521,227.201889 L722.651061,227.201889 L719.77529,232.722427 L717.073494,235.222857 L714.474972,219.45813 L717.454712,209.388324 L720.607039,208.380927 L728.713122,197.929005 L732.142698,196.15807 L733.354972,189.421707 L734.845188,188.415005 L734.74122,188.415005 L734.186721,187.546559 L731.484231,188.415005 L730.861113,192.234778 L724.798359,197.061254 L723.967303,194.283616 L725.179577,191.40107 L717.6273,192.789889 L711.565239,202.026681 L713.43598,203.24181 L713.817198,203.4155 L713.921167,203.519713 L713.851854,203.554451 L705.329897,204.804318 L704.602117,203.693402 L704.983335,203.519713 L705.987671,202.860389 L705.329897,201.644564 L701.241853,200.98524 L699.856298,202.964602 L699.75233,202.964602 L694.55598,202.304583 L693.412326,203.519713 L693.239738,203.311286 L692.581271,202.860389 L686.172648,202.964602 L674.324389,216.749968 L669.682539,220.569046 L669.786508,221.611181 L672.938835,221.993297 L673.042804,221.993297 L673.874552,223.48633 L675.190794,223.104214 L674.428358,225.986065 L676.47238,225.534473 L677.788622,223.48633 L679.17487,223.48633 L683.192909,227.0282 L683.192909,230.847278 L681.426136,234.840741 L680.664393,243.452252 L669.301321,259.564357 L665.110002,261.717409 L663.447197,261.05739 L663.447197,260.050687 L662.130955,260.050687 L659.913652,262.480947 L439.934869,148.551942 Z" id="Stroke-1018"></path>
                <path d="M752.505259,464.681693 L753.509671,463.91826 L753.821601,463.675128 L753.994895,463.536195 L753.994895,464.577494 L754.896024,464.681693 L755,464.681693 L755,466.243988 L754.930682,466.348187 L751.638789,470.06324 L751.674141,470.202173 L752.297306,471.938133 L750.807671,471.938133 L748.590201,473.813026 L748.590201,473.882492 L748.001694,475.722652 L747.447153,477.528079 L745.784224,479.785036 L743.289483,481 L740.102259,479.507171 L738.231377,479.507171 L737.677529,478.673577 L741.799848,472.980126 L746.165471,470.028507 L747.897718,468.813543 L747.932377,468.77881 L748.728836,466.348187 L748.763495,466.243988 L749.629965,465.862619 L749.803259,465.793152 L750.25313,463.605662 L750.25313,463.536195 L751.084941,462.702601 L752.297306,463.536195 L752.505259,464.681693 Z M627.194271,237.930792 L625.704636,240.08355 L627.194271,237.930792 Z M627.263589,237.930792 L625.704636,240.08355 L627.263589,237.930792 Z M618.325083,253.867035 L617.389989,254.699935 L618.325083,253.867035 Z M258.502918,148.841075 L258.988141,150.438104 L258.4336,155.195149 L254.969106,155.195149 L254.795812,155.473014 L253.306177,157.729277 L252.92493,169.915734 L255.246376,172.624221 L256.285447,178.699736 L262.799223,192.795818 L263.734318,194.010782 L265.016,195.504306 L269.970823,196.406672 L270.040141,196.406672 L271.183188,197.343771 L274.058482,199.774394 L275.548118,199.114465 L278.250811,190.088026 L277.419,186.893275 L281.022129,182.901052 L281.784623,177.866836 L280.398964,174.325448 L282.719718,174.776284 L283.447553,172.624221 L289.336777,171.616961 L292.108788,169.915734 L301.705118,157.729277 L304.685082,157.729277 L310.262377,155.195149 L319.755423,147.903976 L321.245059,145.785952 L315.563094,143.528995 L312.791776,145.230222 L312.791776,143.528995 L315.113223,141.8625 L314.558682,138.494778 L316.776152,137.384014 L317.9192,142.41823 L319.963376,143.528995 L322.665377,143.078159 L322.838671,136.828284 L316.602858,129.190475 L322.28413,132.141399 L322.28413,125.892219 L320.13667,124.884959 L323.289235,122.281366 L325.991235,121.725636 L325.991235,118.913644 L323.497188,117.52432 L328.347341,115.545922 L329.351753,112.212239 L326.476459,112.212239 L326.476459,112.108734 L327.966094,107.629553 L327.966094,107.525354 L326.649753,98.7760848 L326.580435,98.6718855 L323.497188,97.6305871 L323.670482,94.2975984 L325.991235,91.7627765 L330.183564,93.4640039 L330.841389,90.0962822 L327.480871,81.6943444 L328.520635,76.3822634 L327.862118,71.6259122 L335.969505,52.2177484 L345.184588,39.8228929 L341.5468,34.3024134 L334.756447,32.4622536 L330.841389,37.2887657 L330.841389,37.2192995 L327.862118,35.7952422 L321.245059,43.1906147 L316.221612,45.517038 L316.152294,45.517038 L316.152294,45.4128387 L318.646342,38.9899931 L323.774458,32.4622536 L323.774458,32.3580543 L322.942647,28.0532334 L318.646342,28.9208663 L318.646342,33.2958481 L314.939929,34.3024134 L314.939929,28.261632 L305.065636,28.261632 L305.065636,28.1574327 L308.599447,25.3454406 L314.385388,25.9352087 L314.454706,25.9352087 L322.007552,24.2339813 L326.649753,20.0333597 L322.942647,15.1026482 L317.9192,12.7769196 L316.152294,7.74270352 L310.539647,2.04855847 L291.450271,0 L273.885188,8.74926887 L268.377211,15.4847124 L266.506329,22.5674869 L259.438705,21.7345871 L257.94907,29.3723966 L257.845094,29.3723966 L250.77747,24.0603157 L239.968082,28.0532334 L234.2168,33.2958481 L234.112824,33.2958481 L234.112824,33.4000474 L235.810412,38.3300641 L235.602459,38.7815945 L234.667365,42.3229818 L230.301741,41.6977859 L223.788659,50.7249196 L221.744483,56.5927302 L227.599741,56.5927302 L228.638812,60.7933518 L226.110106,67.4245959 L219.597023,69.681553 L212.5294,73.8481362 L211.385659,74.5073705 L210.658517,76.7643276 L210,78.9865516 L210,79.0907509 L212.875988,82.250074 L215.855258,81.6943444 L216.513083,85.0620661 L220.046894,87.5621549 L214.019035,90.8256774 L219.423729,94.8526334 L217.726141,97.0748574 L219.874293,99.2276152 L224.065929,101.276174 L226.768623,99.2276152 L234.944635,99.0539497 L241.284424,102.873202 L242.393505,103.532436 L242.393505,106.588255 L242.878035,107.455888 L258.502918,148.841075 Z" id="Stroke-1053"></path>
            </g>
            <g id="矩形" transform="translate(893.000000, 345.000000)">
                <mask id="mask-2" fill="white">
                    <use xlink:href="#path-1"></use>
                </mask>
                <g id="蒙版">
                    <use fill="black" fill-opacity="1" filter="url(#filter-3)" xlink:href="#path-1"></use>
                    <use fill="#FFFFFF" fill-rule="evenodd" xlink:href="#path-1"></use>
                </g>
                <rect fill="#2DAAE1" mask="url(#mask-2)" x="-4" y="-2" width="272" height="100"></rect>
                <path d="M160,34.3238813 C157.94021,35.2276406 155.727838,35.8386018 153.401734,36.1132192 C155.775734,34.7075831 157.594416,32.4801478 158.453119,29.8291303 C156.235557,31.1309601 153.77674,32.0765058 151.156295,32.5857134 C149.061807,30.3782183 146.075105,29 142.770782,29 C136.428303,29 131.284538,34.0840127 131.284538,40.3590112 C131.284538,41.2481086 131.385815,42.1155064 131.580509,42.9483022 C122.03276,42.4738432 113.568064,37.9516744 107.902197,31.0802299 C106.912858,32.7584306 106.346568,34.7096358 106.346568,36.7914785 C106.346568,40.7318632 108.374921,44.2084922 111.456969,46.2450296 C109.573932,46.1869685 107.802848,45.6758548 106.252705,44.8248783 C106.252705,44.8720896 106.252705,44.9194475 106.252705,44.9684183 C106.252705,50.4724943 110.211991,55.0619612 115.467709,56.1057416 C114.502243,56.3673098 113.48903,56.5039587 112.440822,56.5039587 C111.699707,56.5039587 110.980686,56.4346079 110.278273,56.3039704 C111.740188,60.8152894 115.982842,64.0991144 121.008426,64.1919242 C117.07672,67.2393994 112.122608,69.0560084 106.741888,69.0560084 C105.815124,69.0560084 104.899184,69.0013196 104,68.8941411 C109.084749,72.1179989 115.122063,74 121.609859,74 C142.739494,74 154.295431,56.6913378 154.295431,41.6810744 C154.295431,41.1882881 154.284458,40.6991672 154.260437,40.2118058 C156.511214,38.6023694 158.460681,36.60234 160,34.3238813 Z" id="形状结合" fill="#FFFFFF" fill-rule="nonzero" mask="url(#mask-2)"></path>
            </g>
        </g>
    </g>
</svg>