<?xml version="1.0" encoding="UTF-8"?>
<svg width="263px" height="98px" viewBox="0 0 263 98" version="1.1" xmlns="http://www.w3.org/2000/svg" xmlns:xlink="http://www.w3.org/1999/xlink">
    <title>vimeo</title>
    <defs>
        <rect id="path-1" x="0" y="0" width="263" height="237"></rect>
        <filter x="-3.4%" y="-2.5%" width="106.8%" height="107.6%" filterUnits="objectBoundingBox" id="filter-3">
            <feOffset dx="0" dy="3" in="SourceAlpha" result="shadowOffsetOuter1"></feOffset>
            <feGaussianBlur stdDeviation="2.5" in="shadowOffsetOuter1" result="shadowBlurOuter1"></feGaussianBlur>
            <feColorMatrix values="0 0 0 0 0   0 0 0 0 0   0 0 0 0 0  0 0 0 0.123630764 0" type="matrix" in="shadowBlurOuter1"></feColorMatrix>
        </filter>
    </defs>
    <g id="页面-1" stroke="none" stroke-width="1" fill="none" fill-rule="evenodd">
        <g id="桌面端-HD备份-3" transform="translate(-327.000000, -602.000000)">
            <g id="矩形" transform="translate(327.000000, 602.000000)">
                <mask id="mask-2" fill="white">
                    <use xlink:href="#path-1"></use>
                </mask>
                <g id="蒙版">
                    <use fill="black" fill-opacity="1" filter="url(#filter-3)" xlink:href="#path-1"></use>
                    <use fill="#FFFFFF" fill-rule="evenodd" xlink:href="#path-1"></use>
                </g>
                <rect fill="#F8F8F8" mask="url(#mask-2)" x="-4" y="-2" width="272" height="100"></rect>
                <path d="M105.338,35.5799794 C107.258,34.0519794 107.848,31.6009794 106.658,30.1039794 C105.467,28.6089794 102.945,28.6359794 101.026,30.1629794 C99.107,31.6909794 98.516,34.1419794 99.706,35.6379794 C100.897,37.1339794 103.418,37.1069794 105.338,35.5799794 Z M190.415,57.4159794 C189.396,59.2459794 187.63,61.0619794 185.517,61.5249794 C181.387,62.4299794 181.699,56.4179794 182.392,53.9159794 C182.69,52.8359794 183.129,51.9389794 183.588,51.1229794 C184.507,49.4899794 185.794,47.6969794 187.641,47.0609794 C187.766,47.0179794 187.894,46.9799794 188.025,46.9479794 C189.906,46.4859794 191.249,47.8149794 191.845,49.5039794 C192.803,52.2109794 191.741,55.0329794 190.415,57.4159794 Z M162.458,47.6679794 C163.628,47.0659794 165.573,46.8129794 165.962,48.7989794 C166.402,51.0529794 162.725,55.4259794 157.588,57.4799794 C155.629,53.8999794 159.286,49.3589794 162.458,47.6679794 Z M199.571,50.3319794 C199.341,46.9849794 197.96,43.7209794 194.877,42.2279794 C192.044,40.8569794 186.675,41.2199794 183.817,42.4569794 C173.508,47.2989794 174.11,56.0819794 173.725,58.1349794 C171.892,59.3609794 168.784,60.2649794 165.971,60.6439794 C163.497,60.9739794 160.815,60.8479794 159.301,59.6739794 C164.437,57.6329794 177.141,51.3159794 172.984,43.9389794 C168.901,36.4149794 145.802,43.8539794 149.494,60.2639794 C147.377,61.5859794 146.533,61.2049794 146.017,59.1619794 C145.925,55.5269794 146.86,52.7319794 147.385,49.5249794 C147.56,48.4549794 147.78,47.3029794 147.67,46.1629794 C147.48,44.1989794 146.072,42.2479794 143.906,42.0579794 C137.737,42.0579794 134.451,46.5559794 132.903,47.5879794 C132.287,46.1039794 134.44,42.1149794 128.171,42.1149794 C123.391,41.8179794 120.213,45.0209794 117.909,47.0169794 C117.591,45.8509794 117.483,44.5049794 116.996,43.4259794 C116.589,42.5229794 115.79,41.5289794 114.773,41.3729794 C113.745,41.2159794 112.603,41.9209794 111.865,42.4569794 C109.599,44.1049794 107.297,46.2769794 105.765,48.3279794 C106.597,49.8729794 108.973,48.8069794 110.497,48.6129794 C110.431,50.1289794 110.311,51.7129794 110.098,53.2319794 C109.762,55.6169794 109.697,57.6779794 107.589,59.1619794 C106.321,60.0529794 104.545,60.8179794 103.883,58.8769794 C103.243,56.9959794 103.791,54.7849794 104.157,52.9019794 C104.614,50.5569794 104.858,48.1849794 105.194,45.8199794 C105.375,44.5539794 105.599,43.5629794 104.685,42.4889794 C103.979,41.6609794 102.869,41.1549794 101.774,41.2599794 C98.863,41.5369794 97.491,44.1889794 95.445,45.4779794 C96.484,41.3539794 93.183,40.1809794 89.877,40.6859794 C88.565,40.8869794 84.128,42.8449794 82.617,47.5309794 C85.293,47.3259794 86.694,47.7229794 86.437,50.6659794 C86.329,51.8999794 85.707,53.2479794 85.012,54.5429794 C84.209,56.0349794 82.703,58.9629794 80.731,56.8529794 C78.953,54.9529794 79.09,51.3179794 78.683,48.8979794 C78.455,47.5399794 78.216,45.8499794 77.771,44.4519794 C77.388,43.2489794 76.51,41.8039794 75.433,41.4869794 C74.277,41.1479794 72.851,41.6789794 72.012,42.1719794 C69.343,43.7409794 67.309,45.9759794 65,47.8159794 L65,47.9869794 C65.456,48.4239794 65.579,49.1419794 66.254,49.2399794 C67.844,49.4729794 69.358,47.7579794 70.414,49.5449794 C71.058,50.6349794 71.259,51.8299794 71.671,53.0039794 C72.221,54.5719794 72.646,56.2769794 73.096,58.0779794 C73.858,61.1269794 74.792,65.6829794 77.429,66.8009794 C78.775,67.3709794 80.795,66.6089794 81.819,66.0019794 C84.593,64.3589794 86.753,61.9819794 88.604,59.5599794 C90.439,57.1579794 92.286,54.3479794 93.735,51.4649794 C94.623,49.6969794 95.215,48.2029794 97.726,48.5569794 C97.56,52.2339794 96.413,55.3529794 95.73,58.5329794 C95.489,59.6539794 95.177,60.8749794 95.16,62.0119794 C95.129,64.0449794 95.979,66.0369794 97.498,66.4589794 C98.622,66.7689794 100.187,66.6519794 101.261,66.5719794 C104.898,66.3079794 108.088,63.9079794 110.064,61.9319794 C111.157,63.2519794 112.54,66.6309794 117.697,66.6309794 C115.33,61.4469794 116.852,49.0169794 123.211,49.5839794 C125.073,50.3009794 124.235,53.4199794 123.838,55.1699794 C123.564,56.3809794 121.08,67.5349794 130.736,66.6869794 C130.736,64.5699794 129.897,52.8259794 136.226,49.7109794 C136.794,49.4159794 138.78,49.4019794 138.89,50.3809794 C139.383,54.8119794 137.339,58.7829794 137.407,63.2649794 C137.459,70.3359794 148.4,64.3979794 150.806,63.0389794 C152.187,64.0549794 156.266,68.0699794 165.629,65.9449794 C167.389,65.5019794 168.94,65.0349794 170.361,64.3489794 C171.854,63.6289794 173.236,62.8379794 174.751,62.3529794 C174.544,62.4199794 176.538,64.8079794 176.758,64.9759794 C177.715,65.7129794 178.874,66.1949794 180.016,66.5619794 C182.673,67.4119794 185.495,67.1009794 188.174,66.4669794 C193.579,65.1849794 197.236,61.1109794 198.909,55.9279794 C199.448,54.2579794 199.705,52.2809794 199.571,50.3319794 L199.571,50.3319794 Z" id="Fill-3" fill="#00A3DA" mask="url(#mask-2)"></path>
            </g>
        </g>
    </g>
</svg>