<?xml version="1.0" encoding="UTF-8"?>
<svg width="263px" height="98px" viewBox="0 0 263 98" version="1.1" xmlns="http://www.w3.org/2000/svg" xmlns:xlink="http://www.w3.org/1999/xlink">
    <title>youtube</title>
    <defs>
        <rect id="path-1" x="0" y="0" width="263" height="237"></rect>
        <filter x="-3.4%" y="-2.5%" width="106.8%" height="107.6%" filterUnits="objectBoundingBox" id="filter-3">
            <feOffset dx="0" dy="3" in="SourceAlpha" result="shadowOffsetOuter1"></feOffset>
            <feGaussianBlur stdDeviation="2.5" in="shadowOffsetOuter1" result="shadowBlurOuter1"></feGaussianBlur>
            <feColorMatrix values="0 0 0 0 0   0 0 0 0 0   0 0 0 0 0  0 0 0 0.123630764 0" type="matrix" in="shadowBlurOuter1"></feColorMatrix>
        </filter>
        <polygon id="path-4" points="0.0231147541 0.368755814 46.8015984 0.368755814 46.8015984 33 0.0231147541 33"></polygon>
    </defs>
    <g id="页面-1" stroke="none" stroke-width="1" fill="none" fill-rule="evenodd">
        <g id="桌面端-HD备份-3" transform="translate(-610.000000, -602.000000)">
            <g id="矩形" transform="translate(610.000000, 602.000000)">
                <mask id="mask-2" fill="white">
                    <use xlink:href="#path-1"></use>
                </mask>
                <g id="蒙版">
                    <use fill="black" fill-opacity="1" filter="url(#filter-3)" xlink:href="#path-1"></use>
                    <use fill="#FFFFFF" fill-rule="evenodd" xlink:href="#path-1"></use>
                </g>
                <rect fill="#F8F8F8" mask="url(#mask-2)" x="-4" y="-2" width="272" height="100"></rect>
                <g id="yt_logo_rgb_light" mask="url(#mask-2)">
                    <g transform="translate(59.000000, 32.000000)">
                        <g id="编组" stroke-width="1" fill="none">
                            <mask id="mask-5" fill="white">
                                <use xlink:href="#path-4"></use>
                            </mask>
                            <g id="Clip-2"></g>
                            <path d="M45.823459,5.46380233 C45.2852705,3.45847674 43.6995984,1.87869767 41.685918,1.34263953 C38.0360984,0.368755814 23.4006066,0.368755814 23.4006066,0.368755814 C23.4006066,0.368755814 8.7655,0.368755814 5.11568033,1.34263953 C3.102,1.87869767 1.51632787,3.45847674 0.978139344,5.46380233 C0,9.09955814 0,16.684186 0,16.684186 C0,16.684186 0,24.2691977 0.978139344,27.9045698 C1.51632787,29.9098953 3.102,31.4900581 5.11568033,32.0257326 C8.7655,33 23.4006066,33 23.4006066,33 C23.4006066,33 38.0360984,33 41.685918,32.0257326 C43.6995984,31.4900581 45.2852705,29.9098953 45.823459,27.9045698 C46.8015984,24.2691977 46.8015984,16.684186 46.8015984,16.684186 C46.8015984,16.684186 46.8015984,9.09955814 45.823459,5.46380233" id="Fill-1" fill="#D9252A" mask="url(#mask-5)"></path>
                        </g>
                        <polyline id="Fill-3" fill="#FFFFFE" points="19 24 31 17.0003841 19 10 19 24"></polyline>
                        <path d="M72.8781113,26.8991245 C73.1386127,26.237914 73.269451,25.1575942 73.269451,23.6585459 L73.269451,17.3418348 C73.269451,15.8865626 73.1386127,14.822992 72.8781113,14.1503616 C72.6172181,13.4781119 72.1577171,13.1416064 71.5,13.1416064 C70.8646116,13.1416064 70.4160791,13.4781119 70.1555777,14.1503616 C69.8946845,14.822992 69.7642379,15.8865626 69.7642379,17.3418348 L69.7642379,23.6585459 C69.7642379,25.1575942 69.8888085,26.237914 70.1387332,26.8991245 C70.3878744,27.5607156 70.8414994,27.8911306 71.5,27.8911306 C72.1577171,27.8911306 72.6172181,27.5607156 72.8781113,26.8991245 Z M67.6034472,30.0738485 C66.6613331,29.4571755 65.991864,28.4979064 65.5954318,27.1968024 C65.1982161,25.8964598 65,24.1655881 65,22.0049486 L65,19.0616673 C65,16.8789494 65.2264208,15.1259992 65.6804375,13.8031976 C66.1340626,12.4803959 66.8427048,11.5161781 67.8075393,10.909783 C68.7715904,10.3033879 70.0364913,10 71.6022419,10 C73.1448804,10 74.3811848,10.3090978 75.311547,10.9261515 C76.2415175,11.5435858 76.9223468,12.5081842 77.3536431,13.8199467 C77.784156,15.1317092 78,16.8789494 78,19.0616673 L78,22.0049486 C78,24.1655881 77.7900319,25.9017891 77.3704876,27.2135516 C76.9505514,28.525314 76.2697222,29.4845832 75.3283915,30.090217 C74.3866691,30.6966121 73.1107997,31 71.5,31 C69.8433677,31 68.5443862,30.6909022 67.6034472,30.0738485 L67.6034472,30.0738485 Z" id="Fill-4" fill="#222321"></path>
                        <path d="M138.999937,13.5110566 C138.770866,13.7981481 138.617272,14.2674837 138.54104,14.9186819 C138.464054,15.5702614 138.426694,16.5581155 138.426694,17.8830065 L138.426694,19.3405773 L141.737468,19.3405773 L141.737468,17.8830065 C141.737468,16.58061 141.693691,15.5923747 141.606516,14.9186819 C141.518963,14.2453704 141.36084,13.7706972 141.131392,13.4946623 C140.901566,13.2186275 140.546449,13.0802288 140.065665,13.0802288 C139.584502,13.0802288 139.229385,13.2243464 138.999937,13.5110566 Z M138.426694,22.0566993 L138.426694,23.0838235 C138.426694,24.3866013 138.464054,25.36378 138.54104,26.0149782 C138.617272,26.6665577 138.775395,27.1412309 139.016542,27.4393791 C139.256934,27.7375272 139.627901,27.8866013 140.131329,27.8866013 C140.808353,27.8866013 141.273288,27.6216231 141.524624,27.0912854 C141.775583,26.5617102 141.912196,25.6783224 141.934084,24.4415033 L145.835839,24.6733115 C145.857727,24.8505991 145.868671,25.0934641 145.868671,25.4022876 C145.868671,27.2792484 145.360715,28.6815359 144.344047,29.6091503 C143.328134,30.5360022 141.890308,31 140.032832,31 C137.803635,31 136.240518,30.2938998 135.344613,28.8801743 C134.447953,27.4675926 134,25.2810458 134,22.3216776 L134,18.777451 C134,15.7300109 134.464558,13.505719 135.393673,12.1030501 C136.32241,10.7011438 137.912699,10 140.164161,10 C141.71558,10 142.906975,10.2870915 143.737594,10.8608932 C144.567834,11.4354575 145.152777,12.329902 145.491666,13.5442266 C145.830555,14.7589325 146,16.4372549 146,18.5788126 L146,22.0566993 L138.426694,22.0566993 L138.426694,22.0566993 Z" id="Fill-5" fill="#222321"></path>
                        <path d="M56.2103494,21.9222411 L51,3 L55.54645,3 L57.3716003,11.5768534 C57.8364826,13.6907205 58.179128,15.4926741 58.4003005,16.9830983 L58.5332332,16.9830983 C58.6879393,15.915217 59.0309667,14.1244032 59.5619334,11.6102727 L61.45355,3 L66,3 L60.7235663,21.9222411 L60.7235663,31 L56.2103494,31 L56.2103494,21.9222411" id="Fill-6" fill="#222321"></path>
                        <path d="M92,10 L92,30.6632178 L88.5346547,30.6632178 L88.1494522,28.1350233 L88.0534285,28.1350233 C87.1120276,30.0451371 85.7001108,31 83.8180475,31 C82.513234,31 81.5507817,30.5510864 80.9303213,29.6517072 C80.3098609,28.753492 80,27.3485515 80,25.4384377 L80,10 L84.4277976,10 L84.4277976,25.1687791 C84.4277976,26.0906622 84.5241906,26.7475427 84.7166072,27.1405846 C84.9090238,27.5340145 85.2299643,27.7303414 85.6790595,27.7303414 C86.064262,27.7303414 86.4332143,27.6073461 86.7859165,27.3594154 C87.1389881,27.1126487 87.4008371,26.7983704 87.5722024,26.4161924 L87.5722024,10 L92,10" id="Fill-7" fill="#222321"></path>
                        <path d="M116,10 L116,30.6632178 L112.534655,30.6632178 L112.149452,28.1350233 L112.053798,28.1350233 C111.111658,30.0451371 109.700111,31 107.818048,31 C106.513234,31 105.550782,30.5510864 104.930321,29.6517072 C104.309861,28.753492 104,27.3485515 104,25.4384377 L104,10 L108.427798,10 L108.427798,25.1687791 C108.427798,26.0906622 108.523821,26.7475427 108.716238,27.1405846 C108.909024,27.5340145 109.229964,27.7303414 109.679059,27.7303414 C110.064262,27.7303414 110.433214,27.6073461 110.785917,27.3594154 C111.138988,27.1126487 111.400837,26.7983704 111.572202,26.4161924 L111.572202,10 L116,10" id="Fill-8" fill="#222321"></path>
                        <polyline id="Fill-9" fill="#222321" points="105 6.7042667 100.310481 6.7042667 100.310481 31 95.6895193 31 95.6895193 6.7042667 91 6.7042667 91 3 105 3 105 6.7042667"></polyline>
                        <path d="M127.31893,21.9614483 C127.31893,23.4352779 127.256516,24.5901133 127.133238,25.4255745 C127.00996,26.2621751 126.802171,26.8557323 126.510258,27.2073856 C126.218346,27.5594186 125.824864,27.7352452 125.331753,27.7352452 C124.949514,27.7352452 124.595962,27.6475218 124.27071,27.4709356 C123.944683,27.295109 123.681458,27.031559 123.479096,26.6791462 L123.479096,15.1980096 C123.636101,14.6488837 123.905529,14.1977346 124.28738,13.8453218 C124.669231,13.4940483 125.084034,13.3178419 125.533339,13.3178419 C126.005129,13.3178419 126.369535,13.4993649 126.628109,13.862031 C126.885907,14.2246972 127.065784,14.8353434 127.166965,15.6932102 C127.268146,16.5506973 127.31893,17.77161 127.31893,19.3551889 L127.31893,21.9614483 Z M131.578994,13.7120278 C131.297936,12.4368101 130.843204,11.5132456 130.214797,10.9409546 C129.586002,10.3694232 128.721507,10.0834676 127.621697,10.0834676 C126.768444,10.0834676 125.971402,10.320055 125.230572,10.7924704 C124.489742,11.2656453 123.916771,11.8869246 123.512823,12.6566883 L123.478708,12.6566883 L123.479096,2 L119,2 L119,30.7030315 L122.839059,30.7030315 L123.310849,28.7898252 L123.411642,28.7898252 C123.770621,29.4714856 124.309477,30.0103581 125.02821,30.4064427 C125.746556,30.8021476 126.543985,31 127.419723,31 C128.990935,31 130.147343,30.2906174 130.888561,28.872232 C131.629391,27.4530871 132,25.2375958 132,22.2242389 L132,19.0240424 C132,16.7588031 131.859277,14.9883847 131.578994,13.7120278 L131.578994,13.7120278 Z" id="Fill-10" fill="#222321"></path>
                    </g>
                </g>
            </g>
        </g>
    </g>
</svg>