<?xml version="1.0" encoding="UTF-8"?>
<svg width="263px" height="98px" viewBox="0 0 263 98" version="1.1" xmlns="http://www.w3.org/2000/svg" xmlns:xlink="http://www.w3.org/1999/xlink">
    <title>zeplin</title>
    <defs>
        <rect id="path-1" x="0" y="0" width="263" height="237"></rect>
        <filter x="-3.4%" y="-2.5%" width="106.8%" height="107.6%" filterUnits="objectBoundingBox" id="filter-3">
            <feOffset dx="0" dy="3" in="SourceAlpha" result="shadowOffsetOuter1"></feOffset>
            <feGaussianBlur stdDeviation="2.5" in="shadowOffsetOuter1" result="shadowBlurOuter1"></feGaussianBlur>
            <feColorMatrix values="0 0 0 0 0   0 0 0 0 0   0 0 0 0 0  0 0 0 0.123630764 0" type="matrix" in="shadowBlurOuter1"></feColorMatrix>
        </filter>
    </defs>
    <g id="页面-1" stroke="none" stroke-width="1" fill="none" fill-rule="evenodd">
        <g id="桌面端-HD备份-3" transform="translate(-327.000000, -1594.000000)">
            <g id="矩形" transform="translate(327.000000, 1594.000000)">
                <mask id="mask-2" fill="white">
                    <use xlink:href="#path-1"></use>
                </mask>
                <g id="蒙版">
                    <use fill="black" fill-opacity="1" filter="url(#filter-3)" xlink:href="#path-1"></use>
                    <use fill="#FFFFFF" fill-rule="evenodd" xlink:href="#path-1"></use>
                </g>
                <rect fill="#F8F8F8" mask="url(#mask-2)" x="-4" y="-2" width="272" height="100"></rect>
            </g>
            <g id="zeplin-2" transform="translate(417.000000, 1608.000000)" fill-rule="nonzero">
                <g id="zeplin" transform="translate(0.000000, 0.000000)">
                    <path d="M12.9472372,46.3238887 L8.55355214,47.9292065 L8.31973411,60.9985875 L23.5283756,55.4427919 C18.3076028,53.6943914 14.5002077,50.6128791 12.9472372,46.3238887" id="路径" fill="#FDBD39"></path>
                    <path d="M15.2470295,32.5007063 L0,38.0704612 L8.55355214,47.9326963 L12.9472372,46.3273785 C11.3977565,42.0523473 12.3539676,37.2259244 15.2470295,32.5007063" id="路径" fill="#F69833"></path>
                    <path d="M40.9007063,13.6382219 C21.4868301,20.7295388 8.96884088,35.3658496 12.9472372,46.3238887 L83.2496884,20.6422933 C79.2712921,9.68425426 60.3145825,6.54690486 40.9007063,13.6382219" id="路径" fill="#FECF33"></path>
                    <path d="M55.2927295,53.3314499 C74.7066057,46.2401329 87.2455339,31.6701288 83.2461986,20.6457831 L12.9437474,46.3238887 C16.9430827,57.3517241 35.8788533,60.4227669 55.2927295,53.3314499" id="路径" fill="#EE6723"></path>
                    <path d="M83.2461986,20.6422933 L12.9472372,46.3238887 C14.3222268,50.1208143 19.574408,51.9913585 26.937931,51.9913585 C34.1199834,51.9913585 43.3121728,50.2150395 52.8952223,46.7147486 C72.3090985,39.6234317 85.9647694,28.1384296 83.2461986,20.6422933" id="路径" fill="#F69833"></path>
                    <path d="M69.2555048,14.9783133 C62.0769423,14.9783133 52.881263,16.7546323 43.2982135,20.2549231 C23.8843373,27.3462401 10.2286664,38.8277524 12.9472372,46.3238887 L83.2496884,20.6422933 C81.871209,16.8453677 76.6225177,14.9783133 69.2555048,14.9783133" id="路径" fill="#FDBD39"></path>
                    <g id="编组" transform="translate(27.185708, 0.000000)" fill="#EE6723">
                        <path d="M38.1856253,61.6930619 C36.1161612,61.6930619 33.0660573,59.8260075 29.1155796,56.1407561 C24.4427088,51.7819693 19.0928126,45.3955962 14.0430411,38.1611965 C8.99675945,30.9267968 4.85085168,23.695887 2.36609888,17.7945991 C-0.338512671,11.3663482 -0.725882842,7.41587038 1.21794765,6.04786041 C1.66813461,5.74075613 2.20207727,5.58371417 2.74648941,5.59767345 C4.32737848,5.59767345 7.41238056,6.77374325 13.1112588,12.385376 L13.2368924,12.5075197 L13.2194433,12.6820108 C13.1810553,13.0868301 13.146157,13.4916494 13.1147486,13.8929788 L13.0519319,14.6851683 L12.4935604,14.123307 C6.35147486,7.93585376 3.65035314,7.26929788 2.77091816,7.26929788 C2.51965102,7.26929788 2.3207312,7.31815538 2.17764853,7.4193602 C1.33311176,8.01262983 1.27727462,10.9161612 3.90162027,17.1454923 C6.3410054,22.9385958 10.4275862,30.0613211 15.4075613,37.2014956 C20.3910262,44.34516 25.6606564,50.633818 30.2532613,54.9158288 C35.201828,59.5328625 37.4318238,60.0319069 38.1611965,60.0319069 C38.4124636,60.0319069 38.6148733,59.9795596 38.7684254,59.8713752 C39.6583299,59.2466971 39.6583299,56.1372663 36.7338596,49.4298297 L36.5977565,49.1227254 L36.8909015,48.9621936 C37.1840465,48.8016618 37.4702119,48.6446199 37.7354383,48.4910677 L38.0879103,48.2921479 L38.2519319,48.662069 C40.3248857,53.4152057 42.2652264,59.4560864 39.7211467,61.2428749 C39.2709597,61.5499792 38.7335272,61.7070212 38.1856253,61.6930619 Z M38.2181762,60.9601994 L38.2181762,61.3266307 L38.2181762,60.9601994 Z" id="形状"></path>
                        <path d="M28.5781471,53.1290403 L28.5502285,53.4919817 C28.0581637,59.5642709 26.7669298,66.8649771 23.3957624,67.161612 C23.3259659,67.1685916 23.2561695,67.1685916 23.1898629,67.1685916 C20.9005401,67.1685916 18.733361,63.8881595 16.7546323,57.4215206 C14.8771084,51.3003739 13.4218529,43.0853344 12.6575821,34.2874948 C11.8898214,25.4896552 11.9002908,17.1454923 12.6889904,10.7905276 C13.5474865,3.86672206 15.1807229,0.251267138 17.5468218,0.0418778563 C17.6166182,0.0348982135 17.6899044,0.0314083922 17.7597009,0.0314083922 C19.4208558,0.0314083922 21.9230577,1.9124221 24.4845866,10.6718737 L22.8129622,10.9929373 C21.957956,8.06846697 21.0261737,5.68840881 20.101371,4.04819277 C19.2463648,2.53710012 18.4122975,1.70303282 17.7597009,1.70303282 C17.7387619,1.70303282 17.717823,1.70303282 17.6933943,1.70652264 C16.6673868,1.797258 15.1737432,4.2820108 14.3431658,10.9964271 C13.5684254,17.2362277 13.557956,25.4582468 14.3152472,34.1409223 C15.0725384,42.8270877 16.5033652,50.9199834 18.3459909,56.9294558 C19.1695887,59.620108 20.0734524,61.8396344 20.9633569,63.3437474 C21.7799751,64.7326963 22.5721645,65.4969672 23.1898629,65.4969672 C23.2108018,65.4969672 23.2317408,65.4969672 23.2526797,65.4934774 C24.2333195,65.4097216 26.0829248,62.8202742 26.861155,53.7153303 L28.5781471,53.1290403 Z" id="路径"></path>
                    </g>
                </g>
            </g>
        </g>
    </g>
</svg>