<svg width="37" height="37" viewBox="0 0 37 37" fill="none" xmlns="http://www.w3.org/2000/svg">
<g clip-path="url(#clip0)">
<path d="M0.0259018 23.3865C0.0469704 23.265 0.107693 23.154 0.198566 23.0708L8.81833 14.451C9.065 14.2043 9.435 14.2043 9.68167 14.451C9.92833 14.6977 9.92833 15.0677 9.68167 15.3143L2.0757 22.9203H17.8833C27.75 22.9203 35.7667 14.9036 35.7667 5.03695C35.7667 4.66695 36.0133 4.42029 36.3833 4.42029C36.7533 4.42029 37 4.66572 37 5.03572C37 15.5191 28.3667 24.1524 17.8833 24.1524H2.24097L9.68167 31.5931C9.92833 31.8398 9.92833 32.2098 9.68167 32.4564C9.55833 32.5798 9.31167 32.5798 9.18833 32.5798H8.81833L0.313267 24.0747C0.214737 24.0245 0.132774 23.947 0.0772095 23.8514C0.0216446 23.7558 -0.00516129 23.6462 0 23.5357L0.00246429 23.5246C0.00123215 23.4778 0.0160332 23.4334 0.0259018 23.3865Z" fill="#69BFBE"/>
</g>
<defs>
<clipPath id="clip0">
<rect width="37" height="37" fill="white" transform="matrix(-1 0 0 1 37 0)"/>
</clipPath>
</defs>
</svg>
