<svg width="38" height="31" viewBox="0 0 38 31" fill="none" xmlns="http://www.w3.org/2000/svg">
<path d="M25.7354 9.17138C26.1569 9.17138 26.5785 9.17138 27 9.23888C25.8085 3.9318 20.0403 0 13.429 0C6.04779 0 0 4.96537 0 11.171C0 14.7569 1.97005 17.7901 5.34236 20.0682L4.00462 24L8.71467 21.7261C10.4008 22.0721 11.7386 22.4138 13.4247 22.4138C13.8463 22.4138 14.2678 22.4138 14.7625 22.3463C14.4829 21.4477 14.3409 20.5533 14.3409 19.5873C14.3452 13.8625 19.3392 9.17138 25.7354 9.17138ZM18.4918 5.58552C19.5456 5.58552 20.1779 6.27316 20.1779 7.23923C20.1779 8.20531 19.4768 8.89295 18.4918 8.89295C17.4379 8.89295 16.4529 8.20109 16.4529 7.23923C16.4529 6.20566 17.5111 5.58552 18.4918 5.58552ZM9.18783 8.66936C8.12538 8.66936 7.13175 7.98594 7.13175 7.03252C7.13175 6.00738 8.1942 5.39568 9.18783 5.39568C10.1815 5.39568 10.8869 6.0791 10.8869 7.03252C10.8912 7.99016 10.1815 8.66936 9.18783 8.66936Z" fill="#8D8D8D"/>
<path d="M38 19.8274C38 14.3817 32.6234 10 26.5368 10C20.0952 10 15 14.4552 15 19.8274C15 25.2731 20.0952 29.6548 26.5368 29.6548C27.8831 29.6548 29.2251 29.3001 30.5714 28.9497L34.2511 31L33.2597 27.6045C35.9481 25.5543 38 22.8682 38 19.8274ZM22.7835 18.1318C22.1472 18.1318 21.4372 17.496 21.4372 16.7866C21.4372 16.1508 22.1429 15.4414 22.7835 15.4414C23.7749 15.4414 24.4805 16.1464 24.4805 16.7866C24.4805 17.496 23.8442 18.1318 22.7835 18.1318ZM30.4892 17.8031C29.8485 17.8031 29.1342 17.1716 29.1342 16.4752C29.1342 15.8437 29.8485 15.1473 30.4892 15.1473C31.4892 15.1473 32.1991 15.848 32.1991 16.4752C32.1991 17.1759 31.4892 17.8031 30.4892 17.8031Z" fill="#8D8D8D"/>
</svg>
