<svg width="31" height="31" viewBox="0 0 31 31" fill="none" xmlns="http://www.w3.org/2000/svg">
<path d="M27.8034 0H3.16631C1.41921 0 0 1.41579 0 3.16631V27.8034C0 29.554 1.41921 30.9698 3.16631 30.9698H27.8034C29.554 30.9698 30.9732 29.5557 30.9732 27.8034V3.16631C30.9732 1.41579 29.554 0 27.8034 0ZM27.2638 6.81936C27.2638 6.81936 22.6783 5.14569 22.6783 8.5511V11.1231H27.1511L26.7548 15.3722H22.6783V29.8528H17.1995V15.3722H14.5148V11.1231H17.1995V8.5511V6.6537C17.1995 6.6537 17.1432 3.20218 21.645 2.20822C24.8045 1.50801 27.8769 2.51734 27.8769 2.51734L27.2638 6.81936Z" fill="#8D8D8D"/>
</svg>
