<svg width="26" height="31" viewBox="0 0 26 31" fill="none" xmlns="http://www.w3.org/2000/svg">
<path d="M25.8614 11.1754C26.0666 12.1441 26.0439 13.3204 25.7934 14.7042C24.8 19.8246 21.5755 22.3847 16.1199 22.3847H15.3663C15.0812 22.3847 14.83 22.48 14.6126 22.6705C14.3953 22.861 14.2582 23.1061 14.2013 23.4057L14.1332 23.7341L13.1917 29.7194L13.1571 29.979C13.1003 30.2787 12.9603 30.5237 12.7372 30.7142C12.5141 30.9047 12.26 31 11.9749 31H7.67753C7.43782 31 7.24958 30.9135 7.11279 30.7404C6.97599 30.5673 6.92454 30.3597 6.95842 30.1176C7.06133 29.4718 7.2125 28.5031 7.41193 27.2116C7.61137 25.92 7.76254 24.9514 7.86546 24.3056C7.96837 23.6598 8.12242 22.6941 8.3276 21.4083C8.53279 20.1226 8.68684 19.1568 8.78975 18.5111C8.84664 18.0842 9.0921 17.8708 9.52612 17.8708H11.7688C13.2869 17.894 14.6337 17.773 15.8092 17.5075C17.8068 17.0581 19.4447 16.2279 20.7231 15.0171C21.8871 13.9219 22.7718 12.5035 23.3771 10.7618C23.6514 9.95459 23.8511 9.18773 23.9764 8.46124C23.9879 8.39214 24.0023 8.34887 24.0196 8.33144C24.0368 8.314 24.0569 8.30819 24.08 8.314C24.103 8.31981 24.1372 8.34015 24.1826 8.37503C25.0845 9.05567 25.6438 9.98978 25.8605 11.1774L25.8614 11.1754ZM22.9169 6.29725C22.9169 7.53133 22.6545 8.89197 22.1297 10.3792C21.2163 13.0662 19.4927 14.8825 16.9588 15.8279C15.6689 16.289 14.2307 16.5311 12.6442 16.5544C12.6442 16.566 12.1306 16.5718 11.1034 16.5718L9.56256 16.5544C8.42093 16.5544 7.74752 17.1078 7.54233 18.2147C7.51932 18.307 7.03416 21.3628 6.08685 27.3821C6.07535 27.4977 6.00695 27.5554 5.88167 27.5554H0.830636C0.579427 27.5554 0.371045 27.4602 0.205489 27.2697C0.0399342 27.0792 -0.0255847 26.857 0.0089326 26.6033L3.9813 1.15852C4.03819 0.824006 4.19511 0.547292 4.45208 0.328375C4.70904 0.109458 5.00308 0 5.33419 0H15.5734C15.9614 0 16.5178 0.0749097 17.2427 0.224729C17.9675 0.374548 18.6039 0.558916 19.1517 0.777833C20.3732 1.25054 21.3064 1.9596 21.9514 2.90501C22.5964 3.85042 22.9188 4.98052 22.9188 6.29532L22.9169 6.29725Z" fill="#8D8D8D"/>
</svg>
