<svg width="31" height="31" viewBox="0 0 31 31" fill="none" xmlns="http://www.w3.org/2000/svg">
<path d="M31 21.0974L21.0284 17.7441C21.0284 17.7441 21.7947 16.597 22.6127 14.348C23.4309 12.0988 23.548 10.8638 23.548 10.8638L17.0931 10.8106V8.60588L24.9103 8.55077V6.99213H17.0916V3.44429H13.2629V6.99229H5.96918V8.55093L13.2629 8.49911V10.8638H7.41247V12.0987H19.4544C19.4544 12.0987 19.3218 13.1009 18.8602 14.3479C18.3986 15.5947 17.9232 16.6867 17.9232 16.6867C17.9232 16.6867 12.2691 14.7078 9.28966 14.7078C6.31022 14.7078 2.68661 15.9047 2.33528 19.3785C1.98562 22.8505 4.02321 24.7313 6.89387 25.4235C9.76488 26.1194 12.4154 25.4167 14.723 24.2869C17.031 23.1588 19.2956 20.5943 19.2956 20.5943L30.9172 26.2381C30.4431 28.9917 28.0537 31.0028 25.2596 31H5.74019C2.57285 31.0031 0.00294283 28.4378 2.52488e-06 25.2706V5.74035C-0.00293778 2.57277 2.56256 0.00282356 5.72982 2.45729e-06H25.2598C28.4271 -0.00289811 30.9972 2.56244 31 5.72974L31 21.0974ZM16.4669 19.1546C16.4669 19.1546 12.8392 23.7344 8.56471 23.7344C4.28844 23.7344 3.39065 21.5583 3.39065 19.9932C3.39065 18.4301 4.27962 16.7293 7.91805 16.4834C11.5544 16.2379 16.4688 19.1546 16.4688 19.1546H16.4669Z" fill="#8D8D8D"/>
</svg>
