<svg width="31" height="31" viewBox="0 0 31 31" fill="none" xmlns="http://www.w3.org/2000/svg">
<path d="M15.4167 10.7917C14.19 10.7917 13.0137 11.2789 12.1463 12.1463C11.2789 13.0137 10.7917 14.19 10.7917 15.4167C10.7917 16.6433 11.2789 17.8197 12.1463 18.687C13.0137 19.5544 14.19 20.0417 15.4167 20.0417C16.6433 20.0417 17.8197 19.5544 18.687 18.687C19.5544 17.8197 20.0417 16.6433 20.0417 15.4167C20.0417 14.19 19.5544 13.0137 18.687 12.1463C17.8197 11.2789 16.6433 10.7917 15.4167 10.7917ZM15.4167 7.70833C16.4289 7.70833 17.4313 7.90771 18.3665 8.29509C19.3017 8.68248 20.1515 9.25027 20.8673 9.96605C21.5831 10.6818 22.1509 11.5316 22.5382 12.4668C22.9256 13.402 23.125 14.4044 23.125 15.4167C23.125 16.4289 22.9256 17.4313 22.5382 18.3665C22.1509 19.3017 21.5831 20.1515 20.8673 20.8673C20.1515 21.5831 19.3017 22.1509 18.3665 22.5382C17.4313 22.9256 16.4289 23.125 15.4167 23.125C13.3723 23.125 11.4116 22.3129 9.96605 20.8673C8.52046 19.4217 7.70833 17.461 7.70833 15.4167C7.70833 13.3723 8.52046 11.4116 9.96605 9.96605C11.4116 8.52046 13.3723 7.70833 15.4167 7.70833ZM25.4375 7.32292C25.4375 7.83401 25.2345 8.32417 24.8731 8.68557C24.5117 9.04697 24.0215 9.25 23.5104 9.25C22.9993 9.25 22.5092 9.04697 22.1478 8.68557C21.7864 8.32417 21.5833 7.83401 21.5833 7.32292C21.5833 6.81182 21.7864 6.32166 22.1478 5.96026C22.5092 5.59887 22.9993 5.39583 23.5104 5.39583C24.0215 5.39583 24.5117 5.59887 24.8731 5.96026C25.2345 6.32166 25.4375 6.81182 25.4375 7.32292ZM15.4167 3.08333C11.6026 3.08333 10.9797 3.09412 9.20529 3.17275C7.99662 3.22979 7.18571 3.39167 6.43338 3.68458C5.80378 3.91574 5.23459 4.28624 4.76837 4.76837C4.28584 5.23457 3.91484 5.80373 3.68304 6.43338C3.39013 7.18879 3.22825 7.99817 3.17275 9.20529C3.09258 10.9073 3.08333 11.5024 3.08333 15.4167C3.08333 19.2307 3.09412 19.8536 3.17275 21.628C3.22979 22.8352 3.39167 23.6476 3.68304 24.3984C3.94513 25.069 4.25346 25.5516 4.76529 26.0634C5.28483 26.5814 5.76737 26.8913 6.43029 27.1472C7.19187 27.4417 8.00279 27.6051 9.20529 27.6606C10.9073 27.7407 11.5024 27.75 15.4167 27.75C19.2307 27.75 19.8536 27.7392 21.628 27.6606C22.8336 27.6035 23.6461 27.4417 24.3984 27.1503C25.0271 26.918 25.5959 26.5482 26.0634 26.068C26.583 25.5485 26.8928 25.066 27.1488 24.403C27.4417 23.643 27.6051 22.8305 27.6606 21.628C27.7407 19.926 27.75 19.331 27.75 15.4167C27.75 11.6026 27.7392 10.9797 27.6606 9.20529C27.6035 7.99971 27.4417 7.18571 27.1488 6.43338C26.9164 5.80438 26.5461 5.23544 26.065 4.76837C25.599 4.2856 25.0297 3.91455 24.4 3.68304C23.6445 3.39013 22.8336 3.22825 21.628 3.17275C19.926 3.09258 19.331 3.08333 15.4167 3.08333ZM15.4167 0C19.6054 0 20.128 0.0154166 21.7714 0.0924999C23.4133 0.169583 24.531 0.427041 25.5146 0.809375C26.5321 1.20096 27.3893 1.73129 28.2464 2.58692C29.0303 3.35759 29.6369 4.28982 30.024 5.31875C30.4048 6.30079 30.6638 7.42004 30.7408 9.06192C30.8133 10.7053 30.8333 11.228 30.8333 15.4167C30.8333 19.6054 30.8179 20.128 30.7408 21.7714C30.6638 23.4133 30.4048 24.531 30.024 25.5146C29.638 26.5441 29.0313 27.4765 28.2464 28.2464C27.4755 29.0301 26.5434 29.6366 25.5146 30.024C24.5325 30.4048 23.4133 30.6638 21.7714 30.7408C20.128 30.8133 19.6054 30.8333 15.4167 30.8333C11.228 30.8333 10.7053 30.8179 9.06192 30.7408C7.42004 30.6638 6.30233 30.4048 5.31875 30.024C4.28942 29.6377 3.35702 29.031 2.58692 28.2464C1.80283 27.4759 1.19623 26.5436 0.809375 25.5146C0.427041 24.5325 0.169583 23.4133 0.0924999 21.7714C0.0200416 20.128 0 19.6054 0 15.4167C0 11.228 0.0154166 10.7053 0.0924999 9.06192C0.169583 7.4185 0.427041 6.30233 0.809375 5.31875C1.19516 4.28919 1.80191 3.3567 2.58692 2.58692C3.35724 1.80256 4.28958 1.19592 5.31875 0.809375C6.30233 0.427041 7.4185 0.169583 9.06192 0.0924999C10.7053 0.0200416 11.228 0 15.4167 0Z" fill="#8D8D8D"/>
</svg>
